<?xml version="1.0" encoding="UTF-8"?>
<svg id="Calque_2" data-name="Calque 2" xmlns="http://www.w3.org/2000/svg" viewBox="0 0 25.31 12.69">
  <defs>
    <style>
      .cls-1 {
        fill: #fff;
      }
    </style>
  </defs>
  <g id="Capa_1" data-name="Capa 1">
    <g>
      <path class="cls-1" d="M12.49,12.69c-4.1-.03-7.93-1.04-10.24-2.69-.11-.08-.2-.16-.3-.23l-.15-.12C.69,8.72.08,7.65.01,6.55c0-.04-.01-.13-.01-.2,0-.09,0-.16.02-.25.06-1.05.67-2.12,1.77-3.03.15-.12.29-.24.46-.36C4.56,1.04,8.39.03,12.49,0c.08,0,.18,0,.18,0h.11c4.13.03,7.96,1.04,10.28,2.7.16.12.31.24.46.37,1.09.91,1.71,1.98,1.77,3.08,0,.11.01.22.01.22v.1c-.08,1.18-.69,2.25-1.79,3.16l-.15.12c-.1.08-.2.16-.3.24-2.32,1.66-6.14,2.67-10.24,2.7h-.33Z"/>
      <path class="cls-1" d="M24.81,6.35s-.01.11-.01.17c-.06.99-.63,1.92-1.6,2.73-.14.11-.28.23-.43.34-2.15,1.54-5.8,2.57-9.95,2.6h-.33c-4.15-.03-7.8-1.06-9.95-2.6-.15-.11-.29-.23-.43-.34-.97-.81-1.54-1.74-1.6-2.73,0-.06,0-.12,0-.17,0-.06,0-.11,0-.17.06-.99.63-1.92,1.6-2.73.14-.12.28-.23.43-.34C4.69,1.56,8.34.53,12.49.51c.05,0,.11-.01.16-.01.06,0,.12.01.17.01,4.15.02,7.8,1.05,9.95,2.6.15.11.29.22.43.34.97.81,1.54,1.74,1.6,2.73,0,.06.01.11.01.17Z"/>
      <path d="M24.8,6.18c-.06-.99-.63-1.92-1.6-2.74-.14-.11-.28-.23-.43-.33-2.15-1.55-5.8-2.58-9.95-2.6-.06,0-.11,0-.17,0s-.11,0-.17,0c-4.14.03-7.79,1.06-9.95,2.6-.15.11-.29.22-.43.33-.97.81-1.54,1.74-1.6,2.74,0,.06,0,.11,0,.17s0,.11,0,.17c.06.99.63,1.92,1.6,2.74.14.11.28.23.43.33,2.15,1.55,5.8,2.58,9.95,2.6.06,0,.11,0,.17,0s.11,0,.17,0c4.14-.03,7.79-1.06,9.95-2.6.15-.11.29-.22.43-.33.97-.81,1.54-1.74,1.6-2.74,0-.06,0-.11,0-.17s0-.11,0-.17ZM24.46,6.18h-3.75c-.04-.99-.42-1.92-1.06-2.74h3.04c1.07.8,1.71,1.73,1.77,2.74ZM12.49,11.84c-1.1-.08-2.07-.95-2.68-2.26h2.68v2.26ZM12.82.85c1.1.08,2.07.95,2.68,2.26h-2.68V.85ZM12.49,3.11h-2.68c.61-1.31,1.58-2.18,2.68-2.26v2.26ZM12.49,3.45v2.74h-3.36c.02-1,.21-1.94.53-2.74h2.83ZM12.49,6.52v2.74h-2.83c-.32-.8-.51-1.73-.53-2.74h3.36ZM12.82,9.59h2.68c-.61,1.31-1.58,2.18-2.68,2.26v-2.26ZM12.82,9.25v-2.74h3.36c-.02,1-.21,1.94-.53,2.74h-2.83ZM12.82,6.18v-2.74h2.83c.32.8.51,1.73.53,2.74h-3.36ZM14.11.94c1.96.27,3.66,1.06,4.8,2.17h-3.04c-.43-.97-1.04-1.73-1.76-2.17ZM9.44,3.11h-3.04c1.14-1.11,2.84-1.91,4.8-2.17-.72.44-1.33,1.21-1.76,2.17ZM9.31,3.45c-.31.81-.49,1.74-.51,2.74h-3.87c.04-1,.46-1.94,1.16-2.74h3.22ZM8.8,6.52c.02.99.2,1.92.51,2.74h-3.22c-.7-.8-1.12-1.73-1.16-2.74h3.87ZM9.44,9.59c.43.97,1.04,1.73,1.76,2.17-1.96-.27-3.66-1.06-4.8-2.17h3.04ZM15.87,9.59h3.04c-1.14,1.11-2.84,1.91-4.8,2.17.72-.44,1.33-1.21,1.76-2.17ZM16,9.25c.31-.81.49-1.74.51-2.74h3.87c-.04,1-.46,1.94-1.16,2.74h-3.22ZM16.51,6.18c-.02-.99-.2-1.92-.51-2.74h3.22c.7.8,1.12,1.73,1.16,2.74h-3.87ZM22.21,3.11h-2.84c-.8-.86-1.9-1.57-3.21-2.02,2.45.36,4.57,1.08,6.05,2.02ZM9.14,1.09c-1.3.46-2.41,1.16-3.21,2.02h-2.84c1.48-.95,3.59-1.67,6.05-2.02ZM2.61,3.45h3.04c-.64.81-1.03,1.74-1.06,2.74H.84c.06-1,.7-1.94,1.77-2.74ZM.84,6.52h3.75c.04.99.42,1.92,1.06,2.74h-3.04c-1.07-.8-1.71-1.73-1.77-2.74ZM3.1,9.59h2.84c.8.86,1.9,1.57,3.21,2.02-2.45-.36-4.57-1.08-6.05-2.02ZM16.16,11.61c1.3-.46,2.41-1.16,3.21-2.02h2.84c-1.48.95-3.59,1.67-6.05,2.02ZM22.69,9.25h-3.04c.64-.81,1.03-1.74,1.06-2.74h3.75c-.06,1-.7,1.94-1.77,2.74Z"/>
    </g>
  </g>
</svg>