<?xml version="1.0" encoding="UTF-8"?>
<svg id="Calque_2" data-name="Calque 2" xmlns="http://www.w3.org/2000/svg" viewBox="0 0 189.4 189.4">
  <defs>
    <style>
      .cls-1 {
        fill: none;
        stroke: #000;
        stroke-miterlimit: 10;
        stroke-width: 4.37px;
      }
    </style>
  </defs>
  <g id="shapes">
    <g>
      <path class="cls-1" d="M94.7,2.19c-29.03,0-54.93,13.38-71.89,34.3,8.26,1.9,16.5,3.48,24.72,4.74C58.01,17.61,75.22,2.19,94.7,2.19Z"/>
      <path class="cls-1" d="M47.53,41.22c-.11.28-.25.55-.36.86-8.89,15.13-17.45,19.3-38.72,22.31-.77.11-1.33.66-1.55,1.24h-.03c3.53-10.72,8.98-20.57,15.93-29.14,8.26,1.91,16.49,3.48,24.72,4.72Z"/>
      <path class="cls-1" d="M150.08,121.27c-1.82,9.74-4.62,18.8-8.22,26.9,8.22,1.25,16.46,2.84,24.72,4.74,6.95-8.57,12.39-18.42,15.94-29.13-10.82-1.02-21.63-1.86-32.44-2.51Z"/>
      <path class="cls-1" d="M152.52,94.7h34.69c0-10.16-1.66-19.93-4.69-29.08-10.82,1.02-21.63,1.86-32.44,2.5,1.58,8.42,2.43,17.34,2.43,26.58Z"/>
      <path class="cls-1" d="M150.08,121.27c10.81.65,21.62,1.48,32.44,2.51,3.03-9.15,4.69-18.91,4.69-29.08h-34.69c0,9.24-.86,18.15-2.43,26.57Z"/>
      <path class="cls-1" d="M150.08,68.12c10.81-.65,21.62-1.48,32.44-2.5-3.55-10.71-8.98-20.55-15.93-29.13-8.26,1.9-16.5,3.49-24.72,4.74,3.59,8.1,6.4,17.15,8.22,26.9Z"/>
      <path class="cls-1" d="M31.24,94.71H2.19c0-10.16,1.66-19.94,4.69-29.08h.03c-.28.66-.11,1.35.69,1.46,21.37,3.34,26.26,8.09,23.64,27.62Z"/>
      <path class="cls-1" d="M141.86,41.23c8.22-1.25,16.46-2.84,24.72-4.74C149.62,15.57,123.73,2.19,94.7,2.19c19.48,0,36.69,15.42,47.17,39.04Z"/>
      <path class="cls-1" d="M39.3,121.27c-10.8.64-21.62,1.46-32.42,2.51-3.04-9.17-4.69-18.92-4.69-29.08h29.05c-.25,1.88-.55,3.89-.94,6.05-.28,1.55,1.96,1.55,2.71,0,1.02-2.15,2.02-4.17,2.98-6.05h.88c0,9.22.86,18.14,2.43,26.57Z"/>
      <path class="cls-1" d="M94.7,187.21c29.03,0,54.93-13.38,71.89-34.31-8.26-1.9-16.5-3.49-24.72-4.74-10.47,23.62-27.69,39.04-47.17,39.04Z"/>
      <path class="cls-1" d="M47.53,148.17c-8.22,1.25-16.46,2.83-24.72,4.74,16.96,20.92,42.86,34.31,71.89,34.31-19.48,0-36.69-15.43-47.17-39.04Z"/>
      <path class="cls-1" d="M39.31,121.27c-10.81.65-21.62,1.48-32.44,2.51,3.54,10.71,8.98,20.56,15.93,29.13,8.26-1.9,16.5-3.49,24.72-4.74-3.6-8.1-6.4-17.16-8.22-26.9Z"/>
      <path class="cls-1" d="M117.83,94.7h34.69c0-9.24-.86-18.16-2.43-26.58-11.05.66-22.09,1.12-33.13,1.39.57,8.01.87,16.45.87,25.19Z"/>
      <path class="cls-1" d="M114.07,145.19c9.26.58,18.52,1.57,27.79,2.98,3.6-8.1,6.4-17.16,8.22-26.9-11.05-.66-22.09-1.12-33.13-1.39-.64,9.08-1.62,17.59-2.88,25.31Z"/>
      <path class="cls-1" d="M150.08,68.12c-1.82-9.74-4.62-18.8-8.22-26.9-9.28,1.41-18.54,2.4-27.79,2.98,1.26,7.71,2.24,16.23,2.88,25.3,11.04-.26,22.09-.73,33.13-1.39Z"/>
      <path class="cls-1" d="M72.44,69.52c-.55,8.01-.88,16.43-.88,25.19h-34.69v-1.71c7.73-14.44,14.53-20.27,28.55-23.69,2.35.08,4.67.17,7.01.22Z"/>
      <path class="cls-1" d="M39.31,121.27c1.82,9.74,4.62,18.8,8.22,26.9,9.28-1.41,18.54-2.4,27.79-2.98-1.26-7.71-2.24-16.23-2.88-25.31-11.04.27-22.09.73-33.13,1.39Z"/>
      <path class="cls-1" d="M71.57,94.7h-34.69c0,9.24.86,18.15,2.43,26.57,11.05-.66,22.09-1.12,33.13-1.39-.57-8.01-.87-16.45-.87-25.18Z"/>
      <path class="cls-1" d="M77.58,67.09c-1.77.25-3.42.5-5.03.77-2.57.44-4.94.91-7.12,1.43-14.03,3.42-20.82,9.25-28.55,23.69-.28.55-.58,1.13-.88,1.71-.97,1.88-1.96,3.89-2.98,6.05-.75,1.55-2.98,1.55-2.71,0,.39-2.15.69-4.17.94-6.05,2.62-19.52-2.26-24.27-23.64-27.62-.8-.11-.97-.8-.69-1.46.22-.58.77-1.13,1.55-1.24,21.26-3.01,29.82-7.18,38.72-22.31.17-.28.33-.55.5-.83,1.74-3.04,3.51-6.52,5.39-10.49.72-1.55,2.95-1.55,2.68,0-.77,4.36-1.27,8.15-1.46,11.41-.83,13.5,3.81,18.25,18.67,21.26,1.68.33,3.53.66,5.52.97,1.46.25.75,2.49-.88,2.71Z"/>
      <path class="cls-1" d="M47.67,41.24c-.17.28-.33.55-.5.83.11-.3.25-.58.36-.86.06,0,.08.03.14.03Z"/>
      <path class="cls-1" d="M75.31,44.2c-.97,5.97-1.77,12.4-2.37,19.22-14.86-3.01-19.5-7.76-18.67-21.26,7.01.94,14.03,1.6,21.04,2.04Z"/>
      <path class="cls-1" d="M75.32,145.18c-9.26.58-18.52,1.57-27.79,2.98,10.47,23.62,27.69,39.04,47.17,39.04-8.11,0-15.25-16.73-19.38-42.03Z"/>
      <path class="cls-1" d="M94.7,2.2c-8.12,0-15.24,16.71-19.39,42-7.01-.44-14.03-1.1-21.04-2.04.19-3.26.69-7.04,1.46-11.41.28-1.55-1.96-1.55-2.68,0-1.88,3.98-3.65,7.46-5.39,10.49-.06,0-.08-.03-.14-.03C58,17.61,75.23,2.2,94.7,2.2Z"/>
      <path class="cls-1" d="M141.87,148.17c-9.28-1.41-18.54-2.4-27.79-2.98-4.13,25.29-11.26,42.02-19.38,42.02,19.48,0,36.69-15.43,47.17-39.04Z"/>
      <path class="cls-1" d="M114.07,44.21c9.25-.58,18.51-1.57,27.79-2.98C131.39,17.61,114.17,2.19,94.7,2.19c8.11,0,15.25,16.73,19.38,42.02Z"/>
      <path class="cls-1" d="M117.83,94.7c0,8.73-.31,17.17-.87,25.18,11.04.27,22.09.73,33.13,1.39,1.58-8.42,2.43-17.33,2.43-26.57h-34.69Z"/>
      <path class="cls-1" d="M72.44,119.88c.64,9.08,1.62,17.59,2.88,25.31,12.92-.81,25.83-.81,38.75,0,1.26-7.71,2.24-16.23,2.88-25.31-14.84-.36-29.67-.36-44.51,0Z"/>
      <path class="cls-1" d="M72.44,69.51c-.57,8.01-.87,16.45-.87,25.19h46.26c0-8.74-.31-17.18-.87-25.19-14.84.36-29.67.36-44.51,0Z"/>
      <path class="cls-1" d="M75.32,44.21c12.92.81,25.83.81,38.75,0-4.13-25.29-11.26-42.02-19.38-42.02s-15.25,16.73-19.38,42.02Z"/>
      <path class="cls-1" d="M72.44,119.88c14.84-.36,29.67-.36,44.51,0,.57-8.01.87-16.45.87-25.18h-46.26c0,8.73.31,17.17.87,25.18Z"/>
      <path class="cls-1" d="M114.07,145.19c-12.92-.81-25.83-.81-38.75,0,4.13,25.29,11.26,42.03,19.38,42.03s15.25-16.73,19.38-42.02Z"/>
      <path class="cls-1" d="M116.96,69.52c-14.83.33-29.69.33-44.52,0,.03-.55.08-1.1.11-1.66,1.6-.28,3.26-.53,5.03-.77,1.63-.22,2.35-2.46.88-2.71-1.99-.3-3.84-.64-5.52-.97.61-6.82,1.41-13.25,2.37-19.22,12.92.83,25.85.83,38.77,0,1.24,7.73,2.24,16.24,2.87,25.32Z"/>
    </g>
  </g>
</svg>