<?xml version="1.0" encoding="UTF-8"?>
<svg id="Calque_2" data-name="Calque 2" xmlns="http://www.w3.org/2000/svg" viewBox="0 0 1296.99 429.94">
  <g id="Calque_1-2" data-name="Calque 1">
    <g>
      <path d="M0,207.22c.66-.45,1.41-.39,2.17-.41,5.74-.2,15.28-.64,20.72,0,.58.07,1.02.05,1.37.62v7.16l-.6.6h-7.36v7.56h7.36l.6.6v7.36h7.36l.6.6v7.36h7.56v-7.36l.6-.6h7.16l.6.6v7.36h7.56v-7.36l.6-.6h7.16l.6.6v7.36h7.36l.6.6v7.36h7.56v-7.36l.6-.6h23.27v-7.36l.6-.6h7.16l.6.6v7.36h7.56v-7.36l.6-.6h7.16l.6.6v7.36h7.56v-7.36l.6-.6h7.36v-7.36l.6-.6h7.16l.6.6v7.36h7.56v-7.36l.6-.6h23.27v-7.36l.6-.6h7.16l.6.6v7.36h7.56v-7.36l.6-.6h7.16l.6.6v7.36h7.56v-15.31l.6-.6h38.98l.6.6v15.31h7.56v-7.36l.6-.6h7.16l.6.6v7.36h7.36l.6.6v7.36h7.36l.6.6v7.36h7.56v-7.36l.6-.6h7.16l.6.6v7.36h31.22l.6.6v15.31h23.27l.6.6v7.36h7.56v-7.36l.6-.6h23.27v-7.56h-7.36l-.6-.6v-7.16l.6-.6h7.36v-23.27l.6-.6h7.16l.6.6v7.36h7.56v-15.31l.6-.6h15.31v-7.36l.6-.6h7.36v-7.36l.6-.6h7.36v-7.56h-7.36l-.6-.6v-7.16l.6-.6h7.36v-7.36l.6-.6h7.16l.6.6v7.36h7.56v-7.36l.6-.6h7.36v-7.56h-7.36l-.6-.6v-7.36h-7.36l-.6-.6v-7.16l.6-.6h7.36v-7.56h-7.36l-.6-.6v-7.16l.6-.6h7.36v-7.56h-7.36l-.6-.6v-7.16l.6-.6h7.36v-7.36l.6-.6h7.36v-7.36l.6-.6h7.16l.6.6v7.36h7.56v-7.36l.6-.6h7.16l.6.6v7.36h7.56v-7.36l.6-.6h7.16l.6.6v7.36h7.56v-7.36l.6-.6h7.36v-7.56h-7.36l-.6-.6v-7.36h-7.36l-.6-.6v-7.16l.6-.6h7.36v-7.56h-7.36l-.6-.6v-7.36h-7.36l-.6-.6v-7.16l.6-.6h7.36v-7.56h-7.36l-.6-.6v-7.16l.6-.6h7.16l.6.6v7.36h7.56v-7.36l.6-.6h7.16l.6.6v7.16l-.6.6h-7.36v7.56h7.36l.6.6v7.16l-.6.6h-7.36v7.56h7.36l.6.6v7.36h7.56v-7.36l.6-.6h7.36v-7.56h-7.36l-.6-.6v-7.16l.6-.6h7.36v-7.36l.6-.6h7.16l.6.6v7.16l-.6.6h-7.36v7.56h7.36l.6.6v7.16l-.6.6h-7.36v7.56h7.36l.6.6v7.16l-.6.6h-7.36v7.36l-.6.6h-7.36v7.56h7.36l.6.6v7.36h7.56v-7.36l.6-.6h7.16l.6.6v7.16l-.6.6h-7.36v7.56h7.36l.6.6v7.36h7.36l.6.6v7.36h7.36l.6.6v7.16l-.6.6h-7.36v7.56h7.36l.6.6v7.36h7.36l.6.6v7.36h7.36l.6.6v7.36h7.36l.6.6v7.36h7.36l.6.6v7.36h7.36l.6.6v7.36h7.36l.6.6v7.36h7.36l.6.6v7.36h23.47v-7.56h-15.31l-.6-.6v-15.11l.6-.6h7.36v-7.36l.6-.6h7.36v-7.56h-7.36l-.6-.6v-7.16l.6-.6h7.36v-7.36l.6-.6h7.16l.6.6v7.36h7.56v-7.36l.6-.6h7.36v-7.36l.6-.6h7.36v-7.56h-7.36l-.6-.6v-7.16l.6-.6h7.36v-7.56h-7.36l-.6-.6v-7.16l.6-.6h7.36v-7.56h-7.36l-.6-.6v-7.16l.6-.6h7.36v-7.56h-7.36l-.6-.6v-7.36h-7.36l-.6-.6v-7.16l.6-.6h7.36v-7.36l.6-.6h7.16l.6.6v7.36h7.56v-7.36l.6-.6h7.36v-7.56h-7.36l-.6-.6v-7.16l.6-.6h7.36v-7.56h-7.36l-.6-.6v-7.16l.6-.6h7.16l.6.6v7.36h7.56v-7.36l.6-.6h7.16l.6.6v7.16l-.6.6h-7.36v7.56h7.36l.6.6v7.16l-.6.6h-7.36v7.56h7.36l.6.6v7.36h7.56v-7.36l.6-.6h7.16l.6.6v7.16l-.6.6h-7.36v7.56h7.36l.6.6v7.16l-.6.6h-7.36v7.36l-.6.6h-7.36v7.56h7.36l.6.6v7.16l-.6.6h-7.36v7.56h7.36l.6.6v7.16l-.6.6h-7.36v7.56h7.36l.6.6v7.36h7.36l.6.6v7.16l-.6.6h-7.36v7.36l-.6.6h-7.36v7.56h7.36l.6.6v7.16l-.6.6h-7.36v7.36l-.6.6h-7.36v23.27l-.6.6h-7.36v7.36l-.6.6h-7.36v7.56h7.36l.6.6v7.36h7.56v-7.36l.6-.6h7.36v-7.36l.6-.6h7.16l.6.6v7.36h7.56v-7.36l.6-.6h7.36v-7.36l.6-.6h23.27v-7.36l.6-.6h7.36v-7.36l.6-.6h7.16l.6.6v7.36h7.56v-7.36l.6-.6h7.36v-23.27l.6-.6h7.36v-7.56h-7.36l-.6-.6v-7.16l.6-.6h7.36v-7.56h-7.36l-.6-.6v-7.16l.6-.6h7.36v-7.56h-7.36l-.6-.6v-7.16l.6-.6h7.36v-7.56h-7.36l-.6-.6v-7.16l.6-.6h7.36v-7.36l.6-.6h7.36v-7.56h-7.36l-.6-.6v-7.36h-7.36l-.6-.6v-7.16l.6-.6h7.36v-7.56h-7.36l-.6-.6v-7.16l.6-.6h7.36v-7.56h-7.36l-.6-.6v-7.16l.6-.6h7.36v-7.36l.6-.6h7.16l.6.6v7.16l-.6.6h-7.36v7.56h7.36l.6.6v7.16l-.6.6h-7.36v7.56h7.36l.6.6v7.36h7.56v-7.36l.6-.6h7.16l.6.6v7.36h7.36l.6.6v7.36h7.36l.6.6v7.16l-.6.6h-7.16l-.6-.6v-7.36h-7.56v7.36l-.6.6h-7.36v7.56h7.36l.6.6v7.36h7.36l.6.6v7.16l-.6.6h-7.36v7.56h7.36l.6.6v7.36h7.36l.6.6v7.36h7.56v-7.36l.6-.6h7.36v-7.36l.6-.6h7.36v-7.56h-7.36l-.6-.6v-7.16l.6-.6h7.36v-7.36l.6-.6h7.36v-7.56h-7.36l-.6-.6v-7.16l.6-.6h7.36v-7.36l.6-.6h7.36v-7.36l.6-.6h7.16l.6.6v7.36h7.36l.6.6v7.36h7.36l.6.6v7.16l-.6.6h-7.16l-.6-.6v-7.36h-7.56v7.36l-.6.6h-7.36v7.56h7.36l.6.6v7.36h7.56v-7.36l.6-.6h7.16l.6.6v7.16l-.6.6h-7.36v7.36l-.6.6h-7.36v7.36l-.6.6h-7.36v7.36l-.6.6h-7.36v7.56h7.36l.6.6v7.36h7.36l.6.6v7.16l-.6.6h-7.36v7.56h7.36l.6.6v7.36h7.36l.6.6v7.36h7.36l.6.6v7.36h7.36l.6.6v7.36h7.56v-7.36l.6-.6h7.16l.6.6v7.36h7.56v-7.36l.6-.6h7.36v-7.36l.6-.6h23.27v-7.36l.6-.6h7.36v-7.36l.6-.6h7.36v-7.36l.6-.6h7.36v-7.56h-7.36l-.6-.6v-7.16l.6-.6h7.36v-7.56h-7.36l-.6-.6v-7.16l.6-.6h7.36v-7.56h-7.36l-.6-.6v-7.16l.6-.6h7.36v-7.36l.6-.6h7.36v-7.56h-7.36l-.6-.6v-7.16l.6-.6h7.36v-7.36l.6-.6h7.16l.6.6v7.36h7.36l.6.6v7.16l-.6.6h-7.36v7.56h7.36l.6.6v7.36h7.36l.6.6v7.16l-.6.6h-7.36v7.56h7.36l.6.6v7.36h7.36l.6.6v7.36h7.36l.6.6v15.11l-.6.6h-15.31v7.36l-.6.6h-7.36v7.36l-.6.6h-7.36v7.36l-.6.6h-7.36v7.56h7.36l.6.6v7.16l-.6.6h-7.36v7.36l-.6.6h-7.36v7.36l-.6.6h-7.16l-.6-.6v-7.36h-7.56v15.31l-.6.6h-15.31v7.56h7.36l.6.6v7.16l-.6.6h-7.36v7.56h7.36l.6.6v7.36h7.56v-7.36l.6-.6h62.84l.6.6v15.31h7.56v-7.36l.6-.6h7.16l.6.6v7.36h7.36l.6.6v7.36h7.36l.6.6v7.36h7.56v-7.36l.6-.6h7.16l.6.6v7.36h7.56v-7.36l.6-.6h7.16l.6.6v7.36h7.56v-15.31l.6-.6h38.98l.6.6v15.31h15.31l.6.6v15.31h7.36l.6.6v7.36h7.36l.6.6v7.36h7.36l.6.6v7.36h7.36l.6.6v7.36h7.36l.6.6v7.36h7.36l.6.6v7.36h23.27l.6.6v7.36h7.36l.6.6v7.36h7.56v-15.31l.6-.6h15.31v-7.36l.6-.6h7.36v-7.36c.35-.57.79-.55,1.37-.62,5.5-.65,14.91-.17,20.72,0,.76.02,1.51-.04,2.17.41v7.56l-7.95.4v7.56l7.95.4v7.56l-7.95.4v15.31l-.6.6h-15.31v7.36l-.6.6h-7.36v7.36l-.6.6h-7.36v15.31l-.6.6h-7.36v7.36l-.6.6h-31.02l-.6-.6v-7.36h-7.56v7.36l-.6.6h-46.93l-.6-.6v-7.36h-7.36l-.6-.6v-15.31h-23.27l-.6-.6v-7.36h-7.36l-.6-.6v-7.36h-23.27l-.6-.6v-7.36h-23.27l-.6-.6v-7.36h-7.56v23.27l-.6.6h-7.36v7.36l-.6.6h-7.36v7.36l-.6.6h-7.36v7.36l-.6.6h-23.27v7.36l-.6.6h-47.13v7.36l-.6.6h-63.04v7.36l-.6.6h-23.07l-.6-.6v-7.36h-15.31l-.6-.6v-7.36h-7.36l-.6-.6v-15.31h-7.36l-.6-.6v-7.36h-7.36l-.6-.6v-15.31h-7.36l-.6-.6v-15.11l.6-.6h7.36v-7.36l.6-.6h15.31v-15.31l.6-.6h7.36v-7.56h-7.36l-.6-.6v-7.16l.6-.6h7.36v-7.56h-15.31l-.6-.6v-15.31h-7.36l-.6-.6v-7.36h-7.36l-.6-.6v-7.36h-7.56v7.36l-.6.6h-7.36v7.36l-.6.6h-7.36v7.36l-.6.6h-7.36v7.36l-.6.6h-7.36v7.36l-.6.6h-7.36v7.56h7.36l.6.6v15.31h7.36l.6.6v7.16l-.6.6h-7.36v7.36l-.6.6h-15.31v39.18l-.6.6h-7.36v31.22l-.6.6h-15.31v7.36l-.6.6h-55.09l-.4,7.95h-47.33l-.4-7.95h-7.36l-.6-.6v-7.36h-15.31l-.6-.6v-7.36h-7.36l-.6-.6v-7.36h-7.36l-.6-.6v-7.36h-7.36l-.6-.6v-7.36h-7.36l-.6-.6v-15.31h-7.36l-.6-.6v-7.36h-7.36l-.6-.6v-7.36h-7.36l-.6-.6v-7.36h-7.36l-.6-.6v-15.31h-7.36l-.6-.6v-7.36h-7.36l-.6-.6v-23.27h-7.36l-.6-.6v-7.16l.6-.6h7.36v-15.31l.6-.6h15.31v-7.56h-23.27l-.6-.6v-7.36h-7.36l-.6-.6v-7.36h-7.56v7.36l-.6.6h-7.36v7.36l-.6.6h-7.36v15.31l-.6.6h-15.31v15.31l-.6.6h-15.31v7.56h7.36l.6.6v7.16l-.6.6h-7.36v7.36l-.6.6h-7.36v7.36l-.6.6h-7.36v7.36l-.6.6h-7.36v7.36l-.6.6h-23.27v15.31l-.6.6h-15.31v7.36l-.6.6h-23.27v7.36l-.6.6h-31.02l-.6-.6v-15.31h-7.56v7.36l-.6.6h-7.16l-.6-.6v-7.36h-7.36l-.6-.6v-7.36h-7.36l-.6-.6v-7.36h-23.47v7.36l-.6.6h-7.36v7.36l-.6.6h-7.16l-.6-.6v-7.36h-7.36l-.6-.6v-23.27h-7.56v7.36l-.6.6h-7.36v15.31l-.6.6h-7.36v7.36l-.6.6h-7.36v15.31l-.6.6h-7.36v7.36l-.6.6h-7.16l-.6-.6v-7.36h-7.56v7.36l-.6.6h-15.11l-.6-.6v-7.36h-39.18l-.6-.6v-15.31h-7.56v7.36l-.6.6h-7.16l-.6-.6v-7.36h-7.36l-.6-.6v-7.36h-7.36l-.6-.6v-23.07l.6-.6h7.16l.6.6v7.36h7.56v-7.36l.6-.6h23.07l.6.6v7.36h7.56v-7.36l.6-.6h15.31v-7.36l.6-.6h15.31v-15.31l.6-.6h15.31v-15.31l.6-.6h15.31v-7.56h-7.36l-.6-.6v-7.36h-7.36l-.6-.6v-7.36h-7.56v7.36l-.6.6h-7.16l-.6-.6v-7.36h-7.56v7.36l-.6.6h-7.16l-.6-.6v-7.36h-7.56v15.31l-.6.6h-47.13v7.36l-.6.6h-7.16l-.6-.6v-7.36h-7.56v7.36l-.6.6h-7.16l-.6-.6v-7.36h-7.56v7.36l-.6.6h-7.16l-.6-.6v-7.36h-7.56v7.36l-.6.6h-7.16l-.6-.6v-7.36h-7.56v7.36l-.6.6h-7.36v7.36l-.6.6h-23.27v7.36l-.6.6h-7.16l-.6-.6v-23.27h-7.36l-.6-.6v-7.36h-7.36l-.6-.6v-7.36h-7.36l-.6-.6v-7.16l.6-.6h7.36v-7.56h-15.31l-.6-.6v-15.31l-7.95-.4v-7.56l7.95-.4v-7.56l-7.95-.4v-7.56ZM509.09,48.13h-7.56v7.56h7.56v-7.56ZM700,48.13h-7.56v7.56h7.56v-7.56ZM700,64.03h-7.56v7.56h7.56v-7.56ZM517.05,71.99h-7.56v7.56h7.56v-7.56ZM532.96,71.99h-7.56v7.56h7.56v-7.56ZM676.14,71.99h-7.56v7.56h7.56v-7.56ZM692.05,71.99h-7.56v7.56h7.56v-7.56ZM707.96,71.99h-7.56v7.56h7.56v-7.56ZM803.41,71.99h-7.56v7.56h7.56v-7.56ZM819.32,71.99h-7.56v7.56h7.56v-7.56ZM882.96,71.99h-7.56v7.56h7.56v-7.56ZM525,79.94h-7.56v7.56h7.56v-7.56ZM684.09,79.94h-7.56v7.56h7.56v-7.56ZM700,79.94h-7.56v7.36l-.6.6h-7.36v7.56h7.36l.6.6v7.36h7.56v-7.36l.6-.6h7.36v-7.56h-7.36l-.6-.6v-7.36ZM715.91,79.94h-7.56v7.56h7.56v-7.56ZM811.37,79.94h-7.56v7.56h7.56v-7.56ZM875,79.94h-7.56v7.56h7.56v-7.56ZM1002.28,79.94h-7.56v7.56h7.56v-7.56ZM525,95.85h-7.56v7.56h7.56v-7.56ZM684.09,95.85h-7.56v7.56h7.56v-7.56ZM811.37,95.85h-7.56v7.56h7.56v-7.56ZM875,95.85h-7.56v7.56h7.56v-7.56ZM1002.28,95.85h-7.56v7.56h7.56v-7.56ZM469.32,103.81h-7.56v7.56h7.56v-7.56ZM485.23,103.81h-7.56v7.56h7.56v-7.56ZM501.14,103.81h-7.56v7.56h7.56v-7.56ZM517.05,103.81h-7.56v7.36l-.6.6h-7.36v7.56h7.36l.6.6v7.16l-.6.6h-7.36v7.56h7.36l.6.6v7.36h7.56v-7.36l.6-.6h7.36v-7.56h-7.36l-.6-.6v-7.16l.6-.6h7.36v-7.56h-7.36l-.6-.6v-7.36ZM532.96,103.81h-7.56v7.56h7.56v-7.56ZM692.05,103.81h-7.56v7.56h7.56v-7.56ZM707.96,103.81h-7.56v7.56h7.56v-7.56ZM803.41,103.81h-7.56v7.56h7.56v-7.56ZM819.32,103.81h-7.56v7.56h7.56v-7.56ZM867.05,103.81h-7.56v7.56h7.56v-7.56ZM882.96,103.81h-7.56v7.56h7.56v-7.56ZM994.32,103.81h-7.56v7.56h7.56v-7.56ZM1010.23,103.81h-7.56v7.56h7.56v-7.56ZM461.36,111.76h-7.56v7.56h7.56v-7.56ZM477.27,111.76h-7.56v7.56h7.56v-7.56ZM493.18,111.76h-7.56v7.56h7.56v-7.56ZM540.91,111.76h-7.56v7.56h7.56v-7.56ZM684.09,111.76h-7.56v7.56h7.56v-7.56ZM700,111.76h-7.56v7.56h7.56v-7.56ZM811.37,111.76h-7.56v7.56h7.56v-7.56ZM875,111.76h-7.56v7.56h7.56v-7.56ZM1002.28,111.76h-7.56v7.56h7.56v-7.56ZM469.32,119.72h-7.56v7.56h7.56v-7.56ZM485.23,119.72h-7.56v7.56h7.56v-7.56ZM501.14,119.72h-7.56v7.56h7.56v-7.56ZM532.96,119.72h-7.56v7.56h7.56v-7.56ZM548.87,119.72h-7.56v7.56h7.56v-7.56ZM692.05,119.72h-7.56v7.56h7.56v-7.56ZM707.96,119.72h-7.56v7.56h7.56v-7.56ZM803.41,119.72h-7.56v7.56h7.56v-7.56ZM819.32,119.72h-7.56v7.56h7.56v-7.56ZM867.05,119.72h-7.56v7.56h7.56v-7.56ZM994.32,119.72h-7.56v7.56h7.56v-7.56ZM1010.23,119.72h-7.56v7.56h7.56v-7.56ZM461.36,127.67h-7.56v7.56h7.56v-7.56ZM477.27,127.67h-7.56v7.56h7.56v-7.56ZM493.18,127.67h-7.56v7.56h7.56v-7.56ZM540.91,127.67h-7.56v7.56h7.56v-7.56ZM556.82,127.67h-7.56v7.56h7.56v-7.56ZM684.09,127.67h-7.56v7.56h7.56v-7.56ZM700,127.67h-7.56v7.56h7.56v-7.56ZM811.37,127.67h-7.56v7.56h7.56v-7.56ZM827.27,127.67h-7.56v7.56h7.56v-7.56ZM859.09,127.67h-7.56v7.56h7.56v-7.56ZM1002.28,127.67h-7.56v7.56h7.56v-7.56ZM1018.18,127.67h-7.56v7.56h7.56v-7.56ZM469.32,135.63h-7.56v7.56h7.56v-7.56ZM485.23,135.63h-7.56v7.56h7.56v-7.56ZM501.14,135.63h-7.56v7.56h7.56v-7.56ZM532.96,135.63h-7.56v7.56h7.56v-7.56ZM548.87,135.63h-7.56v7.56h7.56v-7.56ZM692.05,135.63h-7.56v7.56h7.56v-7.56ZM707.96,135.63h-7.56v7.56h7.56v-7.56ZM803.41,135.63h-7.56v7.56h7.56v-7.56ZM819.32,135.63h-7.56v7.56h7.56v-7.56ZM835.23,135.63h-7.56v7.56h7.56v-7.56ZM851.14,135.63h-7.56v7.56h7.56v-7.56ZM867.05,135.63h-7.56v7.56h7.56v-7.56ZM994.32,135.63h-7.56v7.56h7.56v-7.56ZM1010.23,135.63h-7.56v7.56h7.56v-7.56ZM1026.14,135.63h-7.56v7.56h7.56v-7.56ZM477.27,143.58h-7.56v7.56h7.56v-7.56ZM509.09,143.58h-7.56v7.56h7.56v-7.56ZM525,143.58h-7.56v7.36l-.6.6h-7.36v7.36l-.6.6h-7.36v7.56h7.36l.6.6v7.36h7.36l.6.6v7.36h7.56v-7.36l.6-.6h7.36v-7.36l.6-.6h7.36v-7.56h-7.36l-.6-.6v-7.36h-7.36l-.6-.6v-7.36ZM540.91,143.58h-7.56v7.56h7.56v-7.56ZM700,143.58h-7.56v7.56h7.56v-7.56ZM827.27,143.58h-7.56v7.56h7.56v-7.56ZM859.09,143.58h-7.56v7.56h7.56v-7.56ZM1018.18,143.58h-7.56v7.56h7.56v-7.56ZM469.32,151.53h-7.56v7.56h7.56v-7.56ZM485.23,151.53h-7.56v7.56h7.56v-7.56ZM501.14,151.53h-7.56v7.56h7.56v-7.56ZM548.87,151.53h-7.56v7.56h7.56v-7.56ZM564.77,151.53h-7.56v7.56h7.56v-7.56ZM676.14,151.53h-7.56v7.56h7.56v-7.56ZM692.05,151.53h-7.56v7.56h7.56v-7.56ZM707.96,151.53h-7.56v7.56h7.56v-7.56ZM803.41,151.53h-7.56v7.56h7.56v-7.56ZM819.32,151.53h-7.56v7.56h7.56v-7.56ZM835.23,151.53h-7.56v7.56h7.56v-7.56ZM851.14,151.53h-7.56v7.56h7.56v-7.56ZM867.05,151.53h-7.56v7.56h7.56v-7.56ZM994.32,151.53h-7.56v7.56h7.56v-7.56ZM1010.23,151.53h-7.56v7.56h7.56v-7.56ZM477.27,159.49h-7.56v7.56h7.56v-7.56ZM493.18,159.49h-7.56v7.56h7.56v-7.56ZM556.82,159.49h-7.56v7.56h7.56v-7.56ZM572.73,159.49h-7.56v7.56h7.56v-7.56ZM652.27,159.49h-7.56v7.56h7.56v-7.56ZM668.18,159.49h-7.56v7.56h7.56v-7.56ZM684.09,159.49h-7.56v7.56h7.56v-7.56ZM700,159.49h-7.56v7.56h7.56v-7.56ZM811.37,159.49h-7.56v7.56h7.56v-7.56ZM827.27,159.49h-7.56v7.56h7.56v-7.56ZM843.18,159.49h-7.56v7.56h7.56v-7.56ZM859.09,159.49h-7.56v7.56h7.56v-7.56ZM875,159.49h-7.56v7.56h7.56v-7.56ZM986.37,159.49h-7.56v7.56h7.56v-7.56ZM1002.28,159.49h-7.56v7.56h7.56v-7.56ZM469.32,167.44h-7.56v7.56h7.56v-7.56ZM485.23,167.44h-7.56v7.56h7.56v-7.56ZM501.14,167.44h-7.56v7.56h7.56v-7.56ZM548.87,167.44h-7.56v7.56h7.56v-7.56ZM564.77,167.44h-7.56v7.56h7.56v-7.56ZM580.68,167.44h-7.56v7.56h7.56v-7.56ZM660.23,167.44h-7.56v7.56h7.56v-7.56ZM676.14,167.44h-7.56v7.56h7.56v-7.56ZM692.05,167.44h-7.56v7.56h7.56v-7.56ZM707.96,167.44h-7.56v7.56h7.56v-7.56ZM803.41,167.44h-7.56v7.56h7.56v-7.56ZM819.32,167.44h-7.56v7.56h7.56v-7.56ZM835.23,167.44h-7.56v7.56h7.56v-7.56ZM851.14,167.44h-7.56v7.56h7.56v-7.56ZM867.05,167.44h-7.56v7.56h7.56v-7.56ZM882.96,167.44h-7.56v7.56h7.56v-7.56ZM978.41,167.44h-7.56v7.56h7.56v-7.56ZM994.32,167.44h-7.56v7.56h7.56v-7.56ZM461.36,175.4h-7.56v7.56h7.56v-7.56ZM493.18,175.4h-7.56v7.56h7.56v-7.56ZM540.91,175.4h-7.56v7.56h7.56v-7.56ZM556.82,175.4h-7.56v7.56h7.56v-7.56ZM588.64,175.4h-7.56v7.56h7.56v-7.56ZM652.27,175.4h-7.56v7.56h7.56v-7.56ZM684.09,175.4h-7.56v7.56h7.56v-7.56ZM811.37,175.4h-7.56v7.56h7.56v-7.56ZM843.18,175.4h-7.56v7.56h7.56v-7.56ZM875,175.4h-7.56v7.56h7.56v-7.56ZM970.46,175.4h-7.56v7.56h7.56v-7.56ZM453.41,183.35h-7.56v7.56h7.56v-7.56ZM469.32,183.35h-7.56v7.56h7.56v-7.56ZM485.23,183.35h-7.56v7.56h7.56v-7.56ZM501.14,183.35h-7.56v7.56h7.56v-7.56ZM517.05,183.35h-7.56v7.56h7.56v-7.56ZM532.96,183.35h-7.56v7.56h7.56v-7.56ZM548.87,183.35h-7.56v7.56h7.56v-7.56ZM564.77,183.35h-7.56v7.56h7.56v-7.56ZM580.68,183.35h-7.56v7.56h7.56v-7.56ZM596.59,183.35h-7.56v7.56h7.56v-7.56ZM644.32,183.35h-7.56v7.56h7.56v-7.56ZM660.23,183.35h-7.56v7.56h7.56v-7.56ZM676.14,183.35h-7.56v7.56h7.56v-7.56ZM692.05,183.35h-7.56v7.56h7.56v-7.56ZM803.41,183.35h-7.56v7.56h7.56v-7.56ZM819.32,183.35h-7.56v7.56h7.56v-7.56ZM835.23,183.35h-7.56v7.56h7.56v-7.56ZM851.14,183.35h-7.56v7.56h7.56v-7.56ZM867.05,183.35h-7.56v7.56h7.56v-7.56ZM882.96,183.35h-7.56v7.56h7.56v-7.56ZM898.87,183.35h-7.56v7.56h7.56v-7.56ZM946.59,183.35h-7.56v7.56h7.56v-7.56ZM962.5,183.35h-7.56v7.56h7.56v-7.56ZM978.41,183.35h-7.56v7.56h7.56v-7.56ZM994.32,183.35h-7.56v7.56h7.56v-7.56ZM461.36,191.31h-7.56v7.56h7.56v-7.56ZM493.18,191.31h-7.56v7.56h7.56v-7.56ZM525,191.31h-7.56v7.56h7.56v-7.56ZM556.82,191.31h-7.56v7.56h7.56v-7.56ZM588.64,191.31h-7.56v7.56h7.56v-7.56ZM652.27,191.31h-7.56v7.56h7.56v-7.56ZM684.09,191.31h-7.56v7.56h7.56v-7.56ZM811.37,191.31h-7.56v7.56h7.56v-7.56ZM843.18,191.31h-7.56v7.56h7.56v-7.56ZM875,191.31h-7.56v7.56h7.56v-7.56ZM906.82,191.31h-7.56v7.56h7.56v-7.56ZM938.64,191.31h-7.56v7.56h7.56v-7.56ZM970.46,191.31h-7.56v7.56h7.56v-7.56ZM437.5,199.26h-7.56v7.56h7.56v-7.56ZM453.41,199.26h-7.56v7.56h7.56v-7.56ZM469.32,199.26h-7.56v7.56h7.56v-7.56ZM485.23,199.26h-7.56v7.56h7.56v-7.56ZM501.14,199.26h-7.56v7.56h7.56v-7.56ZM517.05,199.26h-7.56v7.56h7.56v-7.56ZM532.96,199.26h-7.56v7.56h7.56v-7.56ZM548.87,199.26h-7.56v7.56h7.56v-7.56ZM564.77,199.26h-7.56v7.56h7.56v-7.56ZM580.68,199.26h-7.56v7.56h7.56v-7.56ZM596.59,199.26h-7.56v7.56h7.56v-7.56ZM612.5,199.26h-7.56v7.56h7.56v-7.56ZM660.23,199.26h-7.56v7.56h7.56v-7.56ZM676.14,199.26h-7.56v7.56h7.56v-7.56ZM692.05,199.26h-7.56v7.56h7.56v-7.56ZM771.59,199.26h-7.56v7.56h7.56v-7.56ZM787.5,199.26h-7.56v7.56h7.56v-7.56ZM803.41,199.26h-7.56v7.56h7.56v-7.56ZM819.32,199.26h-7.56v7.56h7.56v-7.56ZM835.23,199.26h-7.56v7.56h7.56v-7.56ZM851.14,199.26h-7.56v7.56h7.56v-7.56ZM867.05,199.26h-7.56v7.56h7.56v-7.56ZM882.96,199.26h-7.56v7.56h7.56v-7.56ZM898.87,199.26h-7.56v7.56h7.56v-7.56ZM914.78,199.26h-7.56v7.56h7.56v-7.56ZM930.68,199.26h-7.56v7.56h7.56v-7.56ZM946.59,199.26h-7.56v7.56h7.56v-7.56ZM962.5,199.26h-7.56v7.56h7.56v-7.56ZM230.68,215.17h-7.56v7.56h7.56v-7.56ZM246.59,215.17h-7.56v7.56h7.56v-7.56ZM421.59,215.17h-7.56v7.56h7.56v-7.56ZM437.5,215.17h-7.56v7.56h7.56v-7.56ZM453.41,215.17h-7.56v7.56h7.56v-7.56ZM469.32,215.17h-7.56v7.56h7.56v-7.56ZM485.23,215.17h-7.56v7.56h7.56v-7.56ZM501.14,215.17h-7.56v7.56h7.56v-7.56ZM517.05,215.17h-7.56v7.56h7.56v-7.56ZM532.96,215.17h-7.56v7.56h7.56v-7.56ZM548.87,215.17h-7.56v7.56h7.56v-7.56ZM564.77,215.17h-7.56v7.56h7.56v-7.56ZM580.68,215.17h-7.56v7.56h7.56v-7.56ZM596.59,215.17h-7.56v7.56h7.56v-7.56ZM612.5,215.17h-7.56v7.56h7.56v-7.56ZM628.41,215.17h-7.56v7.56h7.56v-7.56ZM644.32,215.17h-7.56v7.56h7.56v-7.56ZM660.23,215.17h-7.56v7.56h7.56v-7.56ZM676.14,215.17h-7.56v7.56h7.56v-7.56ZM739.77,215.17h-7.56v7.56h7.56v-7.56ZM755.68,215.17h-7.56v7.56h7.56v-7.56ZM771.59,215.17h-7.56v7.56h7.56v-7.56ZM787.5,215.17h-7.56v7.56h7.56v-7.56ZM803.41,215.17h-7.56v7.56h7.56v-7.56ZM819.32,215.17h-7.56v7.56h7.56v-7.56ZM835.23,215.17h-7.56v7.56h7.56v-7.56ZM851.14,215.17h-7.56v7.56h7.56v-7.56ZM867.05,215.17h-7.56v7.56h7.56v-7.56ZM882.96,215.17h-7.56v7.56h7.56v-7.56ZM898.87,215.17h-7.56v7.56h7.56v-7.56ZM914.78,215.17h-7.56v7.56h7.56v-7.56ZM930.68,215.17h-7.56v7.56h7.56v-7.56ZM946.59,215.17h-7.56v7.56h7.56v-7.56ZM190.91,223.13h-7.56v7.56h7.56v-7.56ZM222.73,223.13h-7.56v7.56h7.56v-7.56ZM254.55,223.13h-7.56v7.56h7.56v-7.56ZM413.64,223.13h-7.56v7.56h7.56v-7.56ZM445.46,223.13h-7.56v7.56h7.56v-7.56ZM477.27,223.13h-7.56v7.56h7.56v-7.56ZM509.09,223.13h-7.56v7.56h7.56v-7.56ZM540.91,223.13h-7.56v7.56h7.56v-7.56ZM572.73,223.13h-7.56v7.56h7.56v-7.56ZM604.55,223.13h-7.56v7.56h7.56v-7.56ZM636.37,223.13h-7.56v7.56h7.56v-7.56ZM668.18,223.13h-7.56v7.56h7.56v-7.56ZM731.82,223.13h-7.56v7.56h7.56v-7.56ZM763.64,223.13h-7.56v7.56h7.56v-7.56ZM795.46,223.13h-7.56v7.56h7.56v-7.56ZM827.27,223.13h-7.56v7.56h7.56v-7.56ZM859.09,223.13h-7.56v7.56h7.56v-7.56ZM890.91,223.13h-7.56v7.56h7.56v-7.56ZM922.73,223.13h-7.56v7.56h7.56v-7.56ZM954.55,223.13h-7.56v7.56h7.56v-7.56ZM23.86,231.08h-7.56v7.56h7.56v-7.56ZM151.14,231.08h-7.56v7.56h7.56v-7.56ZM167.05,231.08h-7.56v7.56h7.56v-7.56ZM182.96,231.08h-7.56v7.56h7.56v-7.56ZM198.86,231.08h-7.56v7.56h7.56v-7.56ZM214.77,231.08h-7.56v7.56h7.56v-7.56ZM230.68,231.08h-7.56v7.56h7.56v-7.56ZM246.59,231.08h-7.56v7.56h7.56v-7.56ZM262.5,231.08h-7.56v7.56h7.56v-7.56ZM278.41,231.08h-7.56v7.56h7.56v-7.56ZM405.68,231.08h-7.56v7.56h7.56v-7.56ZM421.59,231.08h-7.56v7.56h7.56v-7.56ZM437.5,231.08h-7.56v7.56h7.56v-7.56ZM453.41,231.08h-7.56v7.56h7.56v-7.56ZM469.32,231.08h-7.56v7.56h7.56v-7.56ZM485.23,231.08h-7.56v7.56h7.56v-7.56ZM501.14,231.08h-7.56v7.56h7.56v-7.56ZM517.05,231.08h-7.56v7.56h7.56v-7.56ZM532.96,231.08h-7.56v7.56h7.56v-7.56ZM548.87,231.08h-7.56v7.56h7.56v-7.56ZM564.77,231.08h-7.56v7.56h7.56v-7.56ZM580.68,231.08h-7.56v7.56h7.56v-7.56ZM596.59,231.08h-7.56v7.56h7.56v-7.56ZM612.5,231.08h-7.56v7.56h7.56v-7.56ZM628.41,231.08h-7.56v7.56h7.56v-7.56ZM644.32,231.08h-7.56v7.56h7.56v-7.56ZM660.23,231.08h-7.56v7.56h7.56v-7.56ZM676.14,231.08h-7.56v7.56h7.56v-7.56ZM692.05,231.08h-7.56v7.56h7.56v-7.56ZM707.96,231.08h-7.56v7.56h7.56v-7.56ZM723.87,231.08h-7.56v7.56h7.56v-7.56ZM739.77,231.08h-7.56v7.56h7.56v-7.56ZM755.68,231.08h-7.56v7.56h7.56v-7.56ZM771.59,231.08h-7.56v7.56h7.56v-7.56ZM787.5,231.08h-7.56v7.56h7.56v-7.56ZM803.41,231.08h-7.56v7.56h7.56v-7.56ZM819.32,231.08h-7.56v7.56h7.56v-7.56ZM835.23,231.08h-7.56v7.56h7.56v-7.56ZM851.14,231.08h-7.56v7.56h7.56v-7.56ZM867.05,231.08h-7.56v7.56h7.56v-7.56ZM882.96,231.08h-7.56v7.56h7.56v-7.56ZM898.87,231.08h-7.56v7.56h7.56v-7.56ZM914.78,231.08h-7.56v7.56h7.56v-7.56ZM930.68,231.08h-7.56v7.56h7.56v-7.56ZM946.59,231.08h-7.56v7.56h7.56v-7.56ZM39.77,246.99h-7.56v7.56h7.56v-7.56ZM55.68,246.99h-7.56v7.56h7.56v-7.56ZM71.59,246.99h-7.56v7.56h7.56v-7.56ZM87.5,246.99h-7.56v7.56h7.56v-7.56ZM103.41,246.99h-7.56v7.56h7.56v-7.56ZM119.32,246.99h-7.56v7.56h7.56v-7.56ZM135.23,246.99h-7.56v7.56h7.56v-7.56ZM151.14,246.99h-7.56v7.56h7.56v-7.56ZM167.05,246.99h-7.56v7.56h7.56v-7.56ZM182.96,246.99h-7.56v7.56h7.56v-7.56ZM198.86,246.99h-7.56v7.56h7.56v-7.56ZM214.77,246.99h-7.56v7.56h7.56v-7.56ZM230.68,246.99h-7.56v7.56h7.56v-7.56ZM246.59,246.99h-7.56v7.56h7.56v-7.56ZM262.5,246.99h-7.56v7.56h7.56v-7.56ZM278.41,246.99h-7.56v7.56h7.56v-7.56ZM294.32,246.99h-7.56v7.56h7.56v-7.56ZM310.23,246.99h-7.56v7.56h7.56v-7.56ZM326.14,246.99h-7.56v7.56h7.56v-7.56ZM405.68,246.99h-7.56v7.56h7.56v-7.56ZM421.59,246.99h-7.56v7.56h7.56v-7.56ZM437.5,246.99h-7.56v7.56h7.56v-7.56ZM453.41,246.99h-7.56v7.56h7.56v-7.56ZM469.32,246.99h-7.56v7.56h7.56v-7.56ZM485.23,246.99h-7.56v7.56h7.56v-7.56ZM501.14,246.99h-7.56v7.56h7.56v-7.56ZM517.05,246.99h-7.56v7.56h7.56v-7.56ZM548.87,246.99h-7.56v7.56h7.56v-7.56ZM564.77,246.99h-7.56v7.56h7.56v-7.56ZM580.68,246.99h-7.56v7.56h7.56v-7.56ZM596.59,246.99h-7.56v7.56h7.56v-7.56ZM612.5,246.99h-7.56v7.56h7.56v-7.56ZM628.41,246.99h-7.56v7.56h7.56v-7.56ZM644.32,246.99h-7.56v7.56h7.56v-7.56ZM660.23,246.99h-7.56v7.56h7.56v-7.56ZM676.14,246.99h-7.56v7.56h7.56v-7.56ZM692.05,246.99h-7.56v7.56h7.56v-7.56ZM707.96,246.99h-7.56v7.56h7.56v-7.56ZM723.87,246.99h-7.56v7.56h7.56v-7.56ZM739.77,246.99h-7.56v7.56h7.56v-7.56ZM755.68,246.99h-7.56v7.56h7.56v-7.56ZM771.59,246.99h-7.56v7.56h7.56v-7.56ZM787.5,246.99h-7.56v7.56h7.56v-7.56ZM803.41,246.99h-7.56v7.56h7.56v-7.56ZM819.32,246.99h-7.56v7.56h7.56v-7.56ZM835.23,246.99h-7.56v7.56h7.56v-7.56ZM851.14,246.99h-7.56v7.56h7.56v-7.56ZM867.05,246.99h-7.56v7.56h7.56v-7.56ZM882.96,246.99h-7.56v7.56h7.56v-7.56ZM898.87,246.99h-7.56v7.56h7.56v-7.56ZM914.78,246.99h-7.56v7.56h7.56v-7.56ZM930.68,246.99h-7.56v7.56h7.56v-7.56ZM946.59,246.99h-7.56v7.56h7.56v-7.56ZM962.5,246.99h-7.56v7.56h7.56v-7.56ZM978.41,246.99h-7.56v7.56h7.56v-7.56ZM994.32,246.99h-7.56v7.56h7.56v-7.56ZM1010.23,246.99h-7.56v7.56h7.56v-7.56ZM1026.14,246.99h-7.56v7.56h7.56v-7.56ZM39.77,262.9h-7.56v7.56h7.56v-7.56ZM55.68,262.9h-7.56v7.56h7.56v-7.56ZM71.59,262.9h-7.56v7.56h7.56v-7.56ZM87.5,262.9h-7.56v7.56h7.56v-7.56ZM103.41,262.9h-7.56v7.56h7.56v-7.56ZM119.32,262.9h-7.56v7.56h7.56v-7.56ZM135.23,262.9h-7.56v7.56h7.56v-7.56ZM151.14,262.9h-7.56v7.56h7.56v-7.56ZM167.05,262.9h-7.56v7.56h7.56v-7.56ZM182.96,262.9h-7.56v7.56h7.56v-7.56ZM246.59,262.9h-7.56v7.56h7.56v-7.56ZM262.5,262.9h-7.56v7.56h7.56v-7.56ZM278.41,262.9h-7.56v7.56h7.56v-7.56ZM294.32,262.9h-7.56v7.56h7.56v-7.56ZM310.23,262.9h-7.56v7.56h7.56v-7.56ZM326.14,262.9h-7.56v7.56h7.56v-7.56ZM342.05,262.9h-7.56v7.56h7.56v-7.56ZM357.96,262.9h-7.56v7.56h7.56v-7.56ZM373.86,262.9h-7.56v7.56h7.56v-7.56ZM389.77,262.9h-7.56v7.56h7.56v-7.56ZM405.68,262.9h-7.56v7.56h7.56v-7.56ZM421.59,262.9h-7.56v7.56h7.56v-7.56ZM437.5,262.9h-7.56v7.56h7.56v-7.56ZM453.41,262.9h-7.56v7.56h7.56v-7.56ZM469.32,262.9h-7.56v7.56h7.56v-7.56ZM485.23,262.9h-7.56v7.56h7.56v-7.56ZM501.14,262.9h-7.56v7.56h7.56v-7.56ZM580.68,262.9h-7.56v7.56h7.56v-7.56ZM596.59,262.9h-7.56v7.56h7.56v-7.56ZM612.5,262.9h-7.56v7.56h7.56v-7.56ZM628.41,262.9h-7.56v7.56h7.56v-7.56ZM644.32,262.9h-7.56v7.56h7.56v-7.56ZM660.23,262.9h-7.56v7.56h7.56v-7.56ZM676.14,262.9h-7.56v7.56h7.56v-7.56ZM692.05,262.9h-7.56v7.56h7.56v-7.56ZM707.96,262.9h-7.56v7.56h7.56v-7.56ZM723.87,262.9h-7.56v7.56h7.56v-7.56ZM739.77,262.9h-7.56v7.56h7.56v-7.56ZM755.68,262.9h-7.56v7.56h7.56v-7.56ZM771.59,262.9h-7.56v7.56h7.56v-7.56ZM787.5,262.9h-7.56v7.56h7.56v-7.56ZM803.41,262.9h-7.56v7.56h7.56v-7.56ZM819.32,262.9h-7.56v7.56h7.56v-7.56ZM851.14,262.9h-7.56v7.56h7.56v-7.56ZM867.05,262.9h-7.56v7.56h7.56v-7.56ZM882.96,262.9h-7.56v7.56h7.56v-7.56ZM898.87,262.9h-7.56v7.56h7.56v-7.56ZM914.78,262.9h-7.56v7.56h7.56v-7.56ZM930.68,262.9h-7.56v7.56h7.56v-7.56ZM946.59,262.9h-7.56v7.56h7.56v-7.56ZM962.5,262.9h-7.56v7.56h7.56v-7.56ZM978.41,262.9h-7.56v7.56h7.56v-7.56ZM994.32,262.9h-7.56v7.56h7.56v-7.56ZM1010.23,262.9h-7.56v7.56h7.56v-7.56ZM1026.14,262.9h-7.56v7.56h7.56v-7.56ZM1042.05,262.9h-7.56v7.56h7.56v-7.56ZM1057.96,262.9h-7.56v7.56h7.56v-7.56ZM1121.59,262.9h-7.56v7.56h7.56v-7.56ZM1137.5,262.9h-7.56v7.56h7.56v-7.56ZM55.68,278.81h-7.56v7.56h7.56v-7.56ZM71.59,278.81h-7.56v7.56h7.56v-7.56ZM262.5,278.81h-7.56v7.56h7.56v-7.56ZM278.41,278.81h-7.56v7.56h7.56v-7.56ZM294.32,278.81h-7.56v7.56h7.56v-7.56ZM310.23,278.81h-7.56v7.56h7.56v-7.56ZM326.14,278.81h-7.56v7.56h7.56v-7.56ZM342.05,278.81h-7.56v7.56h7.56v-7.56ZM357.96,278.81h-7.56v7.56h7.56v-7.56ZM373.86,278.81h-7.56v7.56h7.56v-7.56ZM389.77,278.81h-7.56v7.56h7.56v-7.56ZM405.68,278.81h-7.56v7.56h7.56v-7.56ZM421.59,278.81h-7.56v7.56h7.56v-7.56ZM437.5,278.81h-7.56v7.56h7.56v-7.56ZM453.41,278.81h-7.56v7.56h7.56v-7.56ZM469.32,278.81h-7.56v7.56h7.56v-7.56ZM485.23,278.81h-7.56v7.56h7.56v-7.56ZM564.77,278.81h-7.56v7.56h7.56v-7.56ZM580.68,278.81h-7.56v7.56h7.56v-7.56ZM596.59,278.81h-7.56v7.56h7.56v-7.56ZM612.5,278.81h-7.56v7.56h7.56v-7.56ZM628.41,278.81h-7.56v7.56h7.56v-7.56ZM644.32,278.81h-7.56v7.56h7.56v-7.56ZM660.23,278.81h-7.56v7.56h7.56v-7.56ZM676.14,278.81h-7.56v7.56h7.56v-7.56ZM692.05,278.81h-7.56v7.56h7.56v-7.56ZM707.96,278.81h-7.56v7.56h7.56v-7.56ZM723.87,278.81h-7.56v7.56h7.56v-7.56ZM739.77,278.81h-7.56v7.56h7.56v-7.56ZM755.68,278.81h-7.56v7.56h7.56v-7.56ZM771.59,278.81h-7.56v7.56h7.56v-7.56ZM787.5,278.81h-7.56v7.56h7.56v-7.56ZM803.41,278.81h-7.56v7.56h7.56v-7.56ZM867.05,278.81h-7.56v7.56h7.56v-7.56ZM882.96,278.81h-7.56v7.56h7.56v-7.56ZM898.87,278.81h-7.56v7.56h7.56v-7.56ZM914.78,278.81h-7.56v7.56h7.56v-7.56ZM930.68,278.81h-7.56v7.56h7.56v-7.56ZM946.59,278.81h-7.56v7.56h7.56v-7.56ZM962.5,278.81h-7.56v7.56h7.56v-7.56ZM978.41,278.81h-7.56v7.56h7.56v-7.56ZM994.32,278.81h-7.56v7.56h7.56v-7.56ZM1010.23,278.81h-7.56v7.56h7.56v-7.56ZM1026.14,278.81h-7.56v7.56h7.56v-7.56ZM1042.05,278.81h-7.56v7.56h7.56v-7.56ZM1057.96,278.81h-7.56v7.56h7.56v-7.56ZM1073.87,278.81h-7.56v7.56h7.56v-7.56ZM1089.78,278.81h-7.56v7.56h7.56v-7.56ZM1105.68,278.81h-7.56v7.56h7.56v-7.56ZM1121.59,278.81h-7.56v7.56h7.56v-7.56ZM1137.5,278.81h-7.56v7.56h7.56v-7.56ZM1153.41,278.81h-7.56v7.56h7.56v-7.56ZM246.59,294.72h-7.56v7.56h7.56v-7.56ZM262.5,294.72h-7.56v7.56h7.56v-7.56ZM278.41,294.72h-7.56v7.56h7.56v-7.56ZM294.32,294.72h-7.56v7.56h7.56v-7.56ZM310.23,294.72h-7.56v7.56h7.56v-7.56ZM326.14,294.72h-7.56v7.56h7.56v-7.56ZM342.05,294.72h-7.56v7.56h7.56v-7.56ZM357.96,294.72h-7.56v7.56h7.56v-7.56ZM373.86,294.72h-7.56v7.56h7.56v-7.56ZM389.77,294.72h-7.56v7.56h7.56v-7.56ZM405.68,294.72h-7.56v7.56h7.56v-7.56ZM421.59,294.72h-7.56v7.56h7.56v-7.56ZM437.5,294.72h-7.56v7.56h7.56v-7.56ZM453.41,294.72h-7.56v7.56h7.56v-7.56ZM469.32,294.72h-7.56v7.56h7.56v-7.56ZM564.77,294.72h-7.56v7.56h7.56v-7.56ZM580.68,294.72h-7.56v7.56h7.56v-7.56ZM596.59,294.72h-7.56v7.56h7.56v-7.56ZM612.5,294.72h-7.56v7.56h7.56v-7.56ZM628.41,294.72h-7.56v7.56h7.56v-7.56ZM644.32,294.72h-7.56v7.56h7.56v-7.56ZM660.23,294.72h-7.56v7.56h7.56v-7.56ZM676.14,294.72h-7.56v7.56h7.56v-7.56ZM692.05,294.72h-7.56v7.56h7.56v-7.56ZM707.96,294.72h-7.56v7.56h7.56v-7.56ZM723.87,294.72h-7.56v7.56h7.56v-7.56ZM739.77,294.72h-7.56v7.56h7.56v-7.56ZM755.68,294.72h-7.56v7.56h7.56v-7.56ZM771.59,294.72h-7.56v7.56h7.56v-7.56ZM787.5,294.72h-7.56v7.56h7.56v-7.56ZM882.96,294.72h-7.56v7.56h7.56v-7.56ZM898.87,294.72h-7.56v7.56h7.56v-7.56ZM914.78,294.72h-7.56v7.56h7.56v-7.56ZM930.68,294.72h-7.56v7.56h7.56v-7.56ZM946.59,294.72h-7.56v7.56h7.56v-7.56ZM962.5,294.72h-7.56v7.56h7.56v-7.56ZM978.41,294.72h-7.56v7.56h7.56v-7.56ZM994.32,294.72h-7.56v7.56h7.56v-7.56ZM1010.23,294.72h-7.56v7.56h7.56v-7.56ZM1026.14,294.72h-7.56v7.56h7.56v-7.56ZM1042.05,294.72h-7.56v7.56h7.56v-7.56ZM1057.96,294.72h-7.56v7.56h7.56v-7.56ZM1073.87,294.72h-7.56v7.56h7.56v-7.56ZM1089.78,294.72h-7.56v7.56h7.56v-7.56ZM1105.68,294.72h-7.56v7.56h7.56v-7.56ZM1121.59,294.72h-7.56v7.36l-.6.6h-7.36v7.36l-.6.6h-7.36v7.56h23.27l.6.6v7.36h7.36l.6.6v7.36h7.36l.6.6v7.36h7.36l.6.6v7.36h7.56v-7.36l.6-.6h7.36v-7.56h-15.31l-.6-.6v-7.36h-7.36l-.6-.6v-15.31h-15.31l-.6-.6v-15.31ZM1137.5,294.72h-7.56v7.56h7.56v-7.56ZM1153.41,294.72h-7.56v7.56h7.56v-7.56ZM1169.32,294.72h-7.56v7.56h7.56v-7.56ZM230.68,310.63h-7.56v7.56h7.56v-7.56ZM246.59,310.63h-7.56v7.56h7.56v-7.56ZM262.5,310.63h-7.56v7.56h7.56v-7.56ZM278.41,310.63h-7.56v7.56h7.56v-7.56ZM294.32,310.63h-7.56v7.56h7.56v-7.56ZM310.23,310.63h-7.56v7.56h7.56v-7.56ZM326.14,310.63h-7.56v7.56h7.56v-7.56ZM342.05,310.63h-7.56v7.56h7.56v-7.56ZM357.96,310.63h-7.56v7.56h7.56v-7.56ZM373.86,310.63h-7.56v7.56h7.56v-7.56ZM389.77,310.63h-7.56v7.56h7.56v-7.56ZM405.68,310.63h-7.56v7.56h7.56v-7.56ZM421.59,310.63h-7.56v7.56h7.56v-7.56ZM437.5,310.63h-7.56v7.56h7.56v-7.56ZM453.41,310.63h-7.56v7.56h7.56v-7.56ZM469.32,310.63h-7.56v7.56h7.56v-7.56ZM564.77,310.63h-7.56v7.56h7.56v-7.56ZM580.68,310.63h-7.56v7.56h7.56v-7.56ZM596.59,310.63h-7.56v7.56h7.56v-7.56ZM612.5,310.63h-7.56v7.56h7.56v-7.56ZM628.41,310.63h-7.56v7.56h7.56v-7.56ZM644.32,310.63h-7.56v7.56h7.56v-7.56ZM660.23,310.63h-7.56v7.56h7.56v-7.56ZM676.14,310.63h-7.56v7.56h7.56v-7.56ZM692.05,310.63h-7.56v7.56h7.56v-7.56ZM707.96,310.63h-7.56v7.56h7.56v-7.56ZM723.87,310.63h-7.56v7.56h7.56v-7.56ZM739.77,310.63h-7.56v7.56h7.56v-7.56ZM755.68,310.63h-7.56v7.56h7.56v-7.56ZM771.59,310.63h-7.56v7.56h7.56v-7.56ZM787.5,310.63h-7.56v7.56h7.56v-7.56ZM882.96,310.63h-7.56v7.56h7.56v-7.56ZM898.87,310.63h-7.56v7.56h7.56v-7.56ZM914.78,310.63h-7.56v7.56h7.56v-7.56ZM930.68,310.63h-7.56v7.56h7.56v-7.56ZM946.59,310.63h-7.56v7.56h7.56v-7.56ZM962.5,310.63h-7.56v7.56h7.56v-7.56ZM978.41,310.63h-7.56v7.56h7.56v-7.56ZM994.32,310.63h-7.56v7.56h7.56v-7.56ZM1010.23,310.63h-7.56v7.56h7.56v-7.56ZM1026.14,310.63h-7.56v7.56h7.56v-7.56ZM1042.05,310.63h-7.56v7.56h7.56v-7.56ZM1057.96,310.63h-7.56v7.56h7.56v-7.56ZM1073.87,310.63h-7.56v7.56h7.56v-7.56ZM1089.78,310.63h-7.56v7.56h7.56v-7.56ZM1153.41,310.63h-7.56v7.56h7.56v-7.56ZM1169.32,310.63h-7.56v7.56h7.56v-7.56ZM1185.23,310.63h-7.56v7.56h7.56v-7.56ZM214.77,326.53h-7.56v7.56h7.56v-7.56ZM246.59,326.53h-7.56v7.56h7.56v-7.56ZM310.23,326.53h-7.56v7.56h7.56v-7.56ZM342.05,326.53h-7.56v7.56h7.56v-7.56ZM373.86,326.53h-7.56v7.56h7.56v-7.56ZM405.68,326.53h-7.56v7.56h7.56v-7.56ZM437.5,326.53h-7.56v7.56h7.56v-7.56ZM596.59,326.53h-7.56v7.56h7.56v-7.56ZM628.41,326.53h-7.56v7.56h7.56v-7.56ZM660.23,326.53h-7.56v7.56h7.56v-7.56ZM692.05,326.53h-7.56v7.56h7.56v-7.56ZM723.87,326.53h-7.56v7.56h7.56v-7.56ZM755.68,326.53h-7.56v7.56h7.56v-7.56ZM787.5,326.53h-7.56v7.56h7.56v-7.56ZM882.96,326.53h-7.56v7.56h7.56v-7.56ZM914.78,326.53h-7.56v7.56h7.56v-7.56ZM946.59,326.53h-7.56v7.56h7.56v-7.56ZM978.41,326.53h-7.56v7.56h7.56v-7.56ZM1010.23,326.53h-7.56v7.56h7.56v-7.56ZM1042.05,326.53h-7.56v7.56h7.56v-7.56ZM1073.87,326.53h-7.56v7.56h7.56v-7.56ZM1105.68,326.53h-7.56v7.56h7.56v-7.56ZM1169.32,326.53h-7.56v7.56h7.56v-7.56ZM1201.14,326.53h-7.56v7.56h7.56v-7.56ZM151.14,342.44h-7.56v7.56h7.56v-7.56ZM182.96,342.44h-7.56v7.56h7.56v-7.56ZM214.77,342.44h-7.56v7.56h7.56v-7.56ZM246.59,342.44h-7.56v7.56h7.56v-7.56ZM342.05,342.44h-7.56v7.56h7.56v-7.56ZM373.86,342.44h-7.56v7.56h7.56v-7.56ZM405.68,342.44h-7.56v7.56h7.56v-7.56ZM596.59,342.44h-7.56v7.56h7.56v-7.56ZM628.41,342.44h-7.56v7.56h7.56v-7.56ZM660.23,342.44h-7.56v7.56h7.56v-7.56ZM692.05,342.44h-7.56v7.56h7.56v-7.56ZM723.87,342.44h-7.56v7.56h7.56v-7.56ZM755.68,342.44h-7.56v7.56h7.56v-7.56ZM851.14,342.44h-7.56v7.56h7.56v-7.56ZM882.96,342.44h-7.56v7.56h7.56v-7.56ZM914.78,342.44h-7.56v7.56h7.56v-7.56ZM946.59,342.44h-7.56v7.56h7.56v-7.56ZM978.41,342.44h-7.56v7.56h7.56v-7.56ZM1010.23,342.44h-7.56v7.56h7.56v-7.56ZM1042.05,342.44h-7.56v7.56h7.56v-7.56ZM1105.68,342.44h-7.56v7.56h7.56v-7.56ZM1137.5,342.44h-7.56v7.56h7.56v-7.56ZM1169.32,342.44h-7.56v7.56h7.56v-7.56ZM1185.23,342.44h-7.56v7.56h7.56v-7.56ZM1201.14,342.44h-7.56v7.56h7.56v-7.56ZM1217.05,342.44h-7.56v7.56h7.56v-7.56ZM1232.96,342.44h-7.56v7.56h7.56v-7.56ZM1264.78,342.44h-7.56v7.56h7.56v-7.56ZM1280.69,342.44h-7.56v7.56h7.56v-7.56ZM198.86,358.35h-7.56v7.56h7.56v-7.56ZM230.68,358.35h-7.56v7.56h7.56v-7.56ZM389.77,358.35h-7.56v7.56h7.56v-7.56ZM612.5,358.35h-7.56v7.56h7.56v-7.56ZM644.32,358.35h-7.56v7.56h7.56v-7.56ZM676.14,358.35h-7.56v7.56h7.56v-7.56ZM707.96,358.35h-7.56v7.56h7.56v-7.56ZM739.77,358.35h-7.56v7.56h7.56v-7.56ZM771.59,358.35h-7.56v7.56h7.56v-7.56ZM867.05,358.35h-7.56v7.56h7.56v-7.56ZM898.87,358.35h-7.56v7.56h7.56v-7.56ZM930.68,358.35h-7.56v7.56h7.56v-7.56ZM962.5,358.35h-7.56v7.56h7.56v-7.56ZM994.32,358.35h-7.56v7.56h7.56v-7.56ZM1026.14,358.35h-7.56v7.56h7.56v-7.56ZM1057.96,358.35h-7.56v7.56h7.56v-7.56ZM1153.41,358.35h-7.56v7.56h7.56v-7.56ZM1185.23,358.35h-7.56v7.56h7.56v-7.56ZM1217.05,358.35h-7.56v7.56h7.56v-7.56ZM1248.87,358.35h-7.56v7.56h7.56v-7.56ZM612.5,374.26h-7.56v7.56h7.56v-7.56ZM644.32,374.26h-7.56v7.56h7.56v-7.56ZM676.14,374.26h-7.56v7.56h7.56v-7.56ZM707.96,374.26h-7.56v7.56h7.56v-7.56ZM739.77,374.26h-7.56v7.56h7.56v-7.56ZM771.59,374.26h-7.56v7.56h7.56v-7.56ZM867.05,374.26h-7.56v7.56h7.56v-7.56ZM898.87,374.26h-7.56v7.56h7.56v-7.56ZM930.68,374.26h-7.56v7.56h7.56v-7.56ZM962.5,374.26h-7.56v7.56h7.56v-7.56ZM994.32,374.26h-7.56v7.56h7.56v-7.56ZM1026.14,374.26h-7.56v7.56h7.56v-7.56ZM1185.23,374.26h-7.56v7.56h7.56v-7.56ZM1217.05,374.26h-7.56v7.56h7.56v-7.56ZM1248.87,374.26h-7.56v7.56h7.56v-7.56ZM660.23,406.08h-7.56v7.56h7.56v-7.56ZM692.05,406.08h-7.56v7.56h7.56v-7.56ZM723.87,406.08h-7.56v7.56h7.56v-7.56ZM755.68,406.08h-7.56v7.56h7.56v-7.56Z"/>
      <polygon points="517.44 7.95 524.8 7.95 525.4 8.55 525.4 15.91 532.76 15.91 533.35 16.51 533.35 23.66 532.76 24.26 525.6 24.26 525 23.66 525 16.31 517.44 16.31 517.44 23.66 516.85 24.26 509.69 24.26 509.09 23.66 509.09 16.51 509.69 15.91 517.05 15.91 517.05 8.35 509.69 8.35 509.09 7.76 509.09 .6 509.69 0 516.85 0 517.44 .6 517.44 7.95"/>
      <polygon points="493.58 8.35 493.58 15.91 500.94 15.91 501.54 16.51 501.54 23.66 500.94 24.26 493.78 24.26 493.18 23.66 493.18 16.31 485.83 16.31 485.23 15.71 485.23 8.55 485.83 7.95 493.18 7.95 493.18 .6 493.78 0 500.94 0 501.54 .6 501.54 7.76 500.94 8.35 493.58 8.35"/>
      <polygon points="819.72 39.77 827.08 39.77 827.67 40.37 827.67 47.53 827.08 48.13 819.72 48.13 819.72 55.48 819.12 56.08 811.96 56.08 811.37 55.48 811.37 48.32 811.96 47.73 819.32 47.73 819.32 40.17 811.96 40.17 811.37 39.57 811.37 32.41 811.96 31.82 819.12 31.82 819.72 32.41 819.72 39.77"/>
      <polygon points="811.96 15.91 819.12 15.91 819.72 16.51 819.72 23.66 819.12 24.26 811.96 24.26 811.37 23.66 811.37 16.51 811.96 15.91"/>
      <polygon points="668.78 47.73 675.94 47.73 676.54 48.32 676.54 55.48 675.94 56.08 668.78 56.08 668.18 55.48 668.18 48.32 668.78 47.73"/>
    </g>
  </g>
</svg>