<?xml version="1.0" encoding="UTF-8"?>
<svg id="Calque_2" data-name="Calque 2" xmlns="http://www.w3.org/2000/svg" viewBox="0 0 38.02 32.79">
  <defs>
    <style>
      .cls-1 {
        fill-rule: evenodd;
      }
    </style>
  </defs>
  <g id="Calque_1-2" data-name="Calque 1">
    <g>
      <path class="cls-1" d="M18.59,0c4.41,0,8.4,1.84,11.3,4.8,2.89,2.97,4.68,7.07,4.68,11.59s-1.79,8.63-4.68,11.59c-2.89,2.97-6.88,4.8-11.3,4.8s-8.4-1.83-11.29-4.8c-2.89-2.97-4.68-7.07-4.68-11.59s1.79-8.63,4.68-11.59C10.19,1.84,14.18,0,18.59,0h0ZM28.49,6.24c-2.53-2.6-6.03-4.21-9.9-4.21s-7.37,1.61-9.9,4.21c-2.53,2.6-4.1,6.19-4.1,10.16s1.57,7.56,4.1,10.16c2.53,2.6,6.03,4.21,9.9,4.21s7.37-1.61,9.9-4.21c2.53-2.6,4.1-6.19,4.1-10.16s-1.57-7.56-4.1-10.16Z"/>
      <path class="cls-1" d="M1.49,26.33c-.55.26-1.18.06-1.41-.44-.23-.51.03-1.13.57-1.39L36.53,7.33c.55-.26,1.18-.06,1.41.45.23.51-.03,1.13-.57,1.39L1.49,26.33Z"/>
      <path class="cls-1" d="M36.53,26.33c.55.26,1.18.06,1.41-.44.23-.51-.03-1.13-.57-1.39L1.49,7.33c-.55-.26-1.18-.06-1.41.45-.23.51.03,1.13.57,1.39l35.87,17.17Z"/>
    </g>
  </g>
</svg>