<?xml version="1.0" encoding="UTF-8"?>
<svg id="Calque_2" data-name="Calque 2" xmlns="http://www.w3.org/2000/svg" viewBox="0 0 50.62 52.57">
  <g id="Calque_1-2" data-name="Calque 1">
    <path d="M0,26.28c0-5.43,1.14-10.1,3.41-13.99,2.27-3.9,5.31-6.92,9.13-9.07,3.81-2.15,8.07-3.22,12.77-3.22,7.63,0,13.75,2.36,18.37,7.06,4.63,4.71,6.94,11.12,6.94,19.22,0,5.44-1.14,10.12-3.41,14.06s-5.31,6.96-9.13,9.06c-3.81,2.11-8.07,3.17-12.77,3.17-4.95,0-9.33-1.06-13.14-3.17-3.81-2.11-6.79-5.13-8.94-9.06-2.15-3.93-3.23-8.62-3.23-14.06ZM6.45,26.28c0,6.58,1.72,11.65,5.18,15.21,3.45,3.57,7.97,5.35,13.57,5.35s10.16-1.78,13.69-5.35c3.53-3.57,5.29-8.64,5.29-15.21s-1.76-11.64-5.29-15.21c-3.53-3.57-8.09-5.35-13.69-5.35s-10.12,1.79-13.57,5.35c-3.45,3.57-5.18,8.64-5.18,15.21ZM21.3,38.33h-5.72V13.26h9.37c3,0,5.27.36,6.81,1.1,1.54.73,2.57,1.68,3.1,2.86s.79,2.42.79,3.71c0,1.79-.3,3.23-.91,4.32-.61,1.1-1.69,1.97-3.23,2.61l5.35,10.46h-6.32l-4.63-9.25h-4.62v9.25ZM29.21,18.92c-.57-.61-1.99-.91-4.26-.91h-3.65v6.21h4.38c2.11,0,3.37-.34,3.78-1.04.4-.69.61-1.44.61-2.25,0-.73-.28-1.4-.85-2.01Z"/>
  </g>
</svg>