<?xml version="1.0" encoding="UTF-8"?>
<svg id="Calque_2" data-name="Calque 2" xmlns="http://www.w3.org/2000/svg" viewBox="0 0 50.08 30.08">
  <defs>
    <style>
      .cls-1 {
        fill-rule: evenodd;
      }
    </style>
  </defs>
  <g id="Calque_1-2" data-name="Calque 1">
    <g>
      <path class="cls-1" d="M16.13,10.08h26.23l.11.89,1.74,14,.14,1.14H3.61v-1.01c0-3.66.52-7.34,2.33-10.17,1.86-2.9,5-4.84,10.18-4.84h0ZM40.63,12.11h-24.5c-4.41,0-7.03,1.57-8.54,3.92-1.39,2.18-1.9,5.07-1.98,8.05h36.52l-1.49-11.97Z"/>
      <path class="cls-1" d="M11.62,2.03c-.55,0-.99-.46-.99-1.01s.44-1.01.99-1.01h28.74c.51,0,.94.4.98.92l2.87,24.05c.07.55-.32,1.06-.86,1.13-.54.07-1.03-.33-1.1-.88l-2.77-23.19H11.62Z"/>
      <path class="cls-1" d="M1.4,29.99c-.49.24-1.08.02-1.31-.49-.23-.51-.02-1.11.48-1.35L48.67,5.13c.49-.24,1.08-.02,1.31.49.23.51.02,1.11-.48,1.35L1.4,29.99Z"/>
      <path class="cls-1" d="M49.5,28.15c.49.24.71.84.48,1.35-.23.51-.82.73-1.31.49L.57,6.96c-.49-.23-.71-.84-.48-1.35.23-.51.82-.73,1.31-.49l48.1,23.02Z"/>
    </g>
  </g>
</svg>