<?xml version="1.0" encoding="UTF-8"?>
<svg id="Calque_2" data-name="Calque 2" xmlns="http://www.w3.org/2000/svg" viewBox="0 0 39.16 33.96">
  <defs>
    <style>
      .cls-1 {
        fill-rule: evenodd;
      }
    </style>
  </defs>
  <g id="Calque_1-2" data-name="Calque 1">
    <g>
      <path class="cls-1" d="M37.21.8c.12-.55.64-.89,1.17-.78.53.12.87.66.76,1.2l-5.71,26.79c-.1.47-.51.8-.96.8H6.7c-.49,0-.89-.36-.97-.84L.02,1.23C-.09.68.25.14.78.02c.53-.12,1.06.23,1.17.78l5.54,25.99h24.18L37.21.8Z"/>
      <path class="cls-1" d="M2.13,7.06c.29,0,.87-.66,1.45-1.32.87-1,1.75-2,2.91-2s2.04,1,2.91,2c.58.66,1.16,1.32,1.45,1.32s.87-.66,1.45-1.32c.87-1,1.75-2,2.91-2s2.04,1,2.91,2c.58.66,1.16,1.32,1.45,1.32s.87-.66,1.45-1.32c.87-1,1.75-2,2.92-2s2.04,1,2.91,2c.58.66,1.16,1.32,1.45,1.32s.87-.66,1.45-1.32c.87-1,1.75-2,2.92-2s2.04,1,2.91,2c.58.66,1.16,1.32,1.45,1.32v2.03c-1.17,0-2.04-1-2.91-2-.58-.66-1.16-1.32-1.45-1.32s-.87.66-1.45,1.32c-.87,1-1.75,2-2.91,2s-2.04-1-2.91-2c-.58-.66-1.16-1.32-1.45-1.32s-.87.66-1.45,1.32c-.87,1-1.75,2-2.92,2s-2.04-1-2.91-2c-.58-.66-1.16-1.32-1.45-1.32s-.87.66-1.45,1.32c-.87,1-1.75,2-2.91,2s-2.04-1-2.91-2c-.58-.66-1.16-1.32-1.45-1.32s-.87.66-1.45,1.32c-.87,1-1.75,2-2.91,2v-2.03Z"/>
      <path class="cls-1" d="M7.1,33.96c-.55,0-.99-.45-.99-1.01s.44-1.01.99-1.01h25.56c.55,0,.99.45.99,1.01s-.44,1.01-.99,1.01H7.1Z"/>
      <path class="cls-1" d="M18.9,22.65v-2.24h1.08v-1.65h-1.08v-5.51h-2.63l-3.45,5.72v1.43h4.06v2.24h2.03ZM14.81,18.76v-.03s1.22-2.05,1.22-2.05c.31-.59.56-1.14.86-1.75h.04c-.03.61-.06,1.19-.06,1.75v2.08h-2.07ZM24.26,13.09c-2.37,0-3.48,2.14-3.48,4.87.01,2.66,1.06,4.84,3.42,4.84s3.46-2.01,3.46-4.9c0-2.57-.97-4.81-3.41-4.81h0ZM24.23,14.76c.86,0,1.3,1.1,1.3,3.18s-.45,3.21-1.28,3.21-1.32-1.03-1.32-3.18.54-3.21,1.31-3.21Z"/>
      <path class="cls-1" d="M28.63,10.81c.47,0,.89.2,1.2.51h0s0,0,0,0c.31.31.5.75.5,1.23s-.19.91-.5,1.23h0c-.31.32-.73.51-1.2.51s-.89-.19-1.2-.51h0c-.31-.32-.5-.75-.5-1.23s.19-.91.5-1.23h0s0,0,0,0c.31-.31.73-.51,1.2-.51h0ZM29.36,11.8c-.19-.19-.45-.31-.73-.31s-.55.12-.73.31h0c-.19.19-.3.46-.3.75s.12.56.3.75h0c.19.19.45.31.73.31s.55-.12.73-.31h0c.19-.19.3-.46.3-.75s-.12-.56-.3-.75h0Z"/>
    </g>
  </g>
</svg>