<?xml version="1.0" encoding="UTF-8"?>
<svg id="Calque_2" data-name="Calque 2" xmlns="http://www.w3.org/2000/svg" viewBox="0 0 50.83 50.83">
  <defs>
    <style>
      .cls-1 {
        fill: none;
        stroke: #000;
        stroke-miterlimit: 10;
        stroke-width: 1.22px;
      }
    </style>
  </defs>
  <g id="Calque_1-2" data-name="Calque 1">
    <g>
      <circle class="cls-1" cx="25.41" cy="25.41" r="24.81"/>
      <path d="M15.05,25.47c0-2.81.45-5.21,1.35-7.21.9-2,2.17-3.53,3.8-4.6,1.63-1.07,3.55-1.61,5.76-1.61,2.62,0,4.71.71,6.3,2.14,1.58,1.43,2.65,3.45,3.19,6.07l-1.39.25c-.52-2.38-1.43-4.17-2.73-5.37-1.3-1.2-3.08-1.8-5.33-1.8-2.97,0-5.29,1.07-6.96,3.21-1.67,2.14-2.5,5.09-2.5,8.85s.84,6.71,2.51,8.85c1.68,2.14,4.01,3.21,7.01,3.21,2.4,0,4.29-.67,5.67-2,1.38-1.33,2.25-3.18,2.6-5.53h1.43c-.33,2.71-1.34,4.86-3.03,6.46-1.69,1.59-3.94,2.39-6.74,2.39-2.26,0-4.21-.53-5.85-1.6-1.64-1.07-2.9-2.6-3.78-4.58-.88-1.99-1.32-4.36-1.32-7.12Z"/>
    </g>
  </g>
</svg>