<?xml version="1.0" encoding="UTF-8"?>
<svg id="Calque_2" data-name="Calque 2" xmlns="http://www.w3.org/2000/svg" viewBox="0 0 31.95 32.79">
  <defs>
    <style>
      .cls-1 {
        fill-rule: evenodd;
      }
    </style>
  </defs>
  <g id="Calque_1-2" data-name="Calque 1">
    <g>
      <path class="cls-1" d="M15.97,0c4.41,0,8.4,1.84,11.29,4.8,2.89,2.97,4.68,7.07,4.68,11.59s-1.79,8.63-4.68,11.59c-2.89,2.97-6.88,4.8-11.29,4.8s-8.4-1.83-11.29-4.8C1.79,25.02,0,20.92,0,16.4S1.79,7.77,4.68,4.8C7.57,1.84,11.56,0,15.97,0h0ZM25.87,6.24c-2.53-2.6-6.03-4.21-9.9-4.21s-7.37,1.61-9.9,4.21c-2.53,2.6-4.1,6.19-4.1,10.16s1.57,7.56,4.1,10.16c2.53,2.6,6.03,4.21,9.9,4.21s7.37-1.61,9.9-4.21c2.53-2.6,4.1-6.19,4.1-10.16s-1.57-7.56-4.1-10.16Z"/>
      <path class="cls-1" d="M18.58,19.26l1.61,4.85h2.07l-5.13-15.43h-2.32l-5.13,15.43h2.01l1.56-4.85h5.33ZM13.65,17.7l1.47-4.46c.31-.94.54-1.9.76-2.79h.04c.22.89.45,1.81.78,2.82l1.49,4.44h-4.55Z"/>
    </g>
  </g>
</svg>