<?xml version="1.0" encoding="UTF-8"?>
<svg id="Calque_2" data-name="Calque 2" xmlns="http://www.w3.org/2000/svg" viewBox="0 0 75.52 48.8">
  <g id="Calque_1-2" data-name="Calque 1">
    <path id="Wide_Outline" data-name="Wide Outline" d="M75.52,24.4c0-4.98-2.26-9.71-6.56-13.77h.05s-1.18-1.01-1.18-1.01c-.89-.75-1.83-1.47-2.83-2.14C58.01,2.76,48.44.07,38.16,0h-.14c-.08,0-.16,0-.24,0,0,0,0,0-.01,0-.08,0-.17,0-.23,0h-.17s0,0,0,0c-5.14.04-10.09.73-14.64,1.99-5.85,1.63-11.02,4.23-15.02,7.62,0,0,0,0,0,0l-1.18,1h.05C2.26,14.68,0,19.42,0,24.4s2.26,9.72,6.56,13.77h-.05s1.18,1.01,1.18,1.01c7.11,6.03,17.92,9.53,29.67,9.61h.15c.08,0,.17,0,.25,0s.16,0,.23,0c0,0,.01,0,.02,0h.16s0,0,0,0c3.3-.02,6.53-.32,9.62-.86,7.91-1.39,14.93-4.42,20.04-8.75,0,0,0,0,0,0l1.17-.99h-.05c4.3-4.07,6.56-8.8,6.56-13.78ZM65.53,39.01c-.09.06-.17.13-.26.19-.14.1-.27.2-.41.3-.1.07-.19.13-.29.2-.13.09-.27.19-.4.28-.1.07-.2.14-.31.2-.13.09-.27.18-.4.26-.11.07-.21.13-.32.2-.14.08-.27.17-.41.25-.11.07-.22.13-.33.2-.14.08-.27.16-.41.24-.11.06-.23.13-.34.19-.14.08-.28.16-.42.23-.11.06-.23.12-.35.19-.14.08-.29.15-.43.22-.12.06-.23.12-.35.18-.15.07-.3.15-.44.22-.12.06-.24.11-.36.17-.15.07-.3.14-.46.21-.12.05-.24.11-.36.16-.16.07-.31.14-.47.21-.12.05-.24.1-.36.15-.16.07-.33.13-.49.2-.02,0-.05.02-.07.03,2.43-1.45,4.6-3.17,6.41-5.14.7.14,1.39.28,2.06.43-.01,0-.02.02-.04.03ZM17.87,43.47c-.12-.05-.23-.1-.35-.15-.16-.07-.32-.14-.48-.21-.12-.05-.24-.11-.35-.16-.15-.07-.31-.14-.46-.21-.12-.06-.24-.11-.35-.17-.15-.07-.3-.14-.45-.22-.12-.06-.23-.12-.35-.18-.15-.07-.29-.15-.43-.23-.12-.06-.23-.12-.34-.18-.14-.08-.28-.15-.42-.23-.11-.06-.23-.13-.34-.19-.14-.08-.28-.16-.42-.24-.11-.07-.22-.13-.33-.2-.14-.08-.27-.17-.41-.25-.11-.07-.21-.13-.32-.2-.14-.09-.27-.17-.4-.26-.1-.07-.21-.13-.31-.2-.13-.09-.27-.18-.4-.28-.1-.07-.19-.13-.29-.2-.14-.1-.27-.2-.41-.3-.09-.06-.18-.13-.26-.19-.01,0-.02-.02-.04-.03.67-.15,1.36-.29,2.06-.43,1.82,1.97,3.99,3.7,6.42,5.14-.02,0-.04-.02-.07-.03-.17-.07-.33-.13-.5-.2ZM9.99,9.79c.09-.07.18-.13.27-.2.13-.1.27-.2.4-.3.1-.07.19-.14.29-.2.13-.09.27-.19.4-.28.1-.07.2-.14.31-.2.13-.09.27-.18.4-.26.11-.07.21-.13.32-.2.14-.08.27-.17.41-.25.11-.07.22-.13.33-.2.14-.08.28-.16.42-.24.11-.06.22-.13.34-.19.14-.08.28-.16.42-.23.11-.06.23-.12.34-.18.14-.08.29-.15.44-.23.12-.06.23-.12.35-.18.15-.07.3-.15.45-.22.12-.06.23-.11.35-.17.15-.07.31-.14.46-.21.12-.05.23-.11.35-.16.16-.07.32-.14.48-.21.12-.05.23-.1.35-.15.17-.07.33-.14.5-.2.02,0,.04-.02.06-.03-2.43,1.45-4.6,3.17-6.42,5.14-.7-.14-1.39-.28-2.06-.43.01,0,.02-.02.04-.03ZM57.65,5.33c.12.05.23.1.35.15.16.07.32.14.48.21.12.05.23.11.35.16.16.07.31.14.46.21.12.05.23.11.35.17.15.07.3.15.45.22.11.06.23.12.34.17.15.08.3.15.44.23.11.06.23.12.34.18.15.08.29.16.43.24.11.06.22.12.33.19.14.08.28.16.42.25.11.06.21.13.32.19.14.09.28.17.42.26.1.06.21.13.31.19.14.09.28.18.42.27.1.06.2.13.29.19.14.1.28.19.42.29.09.06.18.13.27.19.15.11.29.21.44.32.08.06.16.12.24.17.01.01.03.02.04.03-.67.15-1.36.29-2.06.43-1.82-1.97-3.99-3.7-6.42-5.14.02,0,.04.02.06.02.17.07.34.14.5.2ZM36.97,47.2c-5.62-.33-10.86-4.17-13.97-10.22,4.5-.44,9.19-.67,13.97-.7v10.92ZM53.23,35.47c-4.72-.48-9.65-.74-14.69-.76v-9.52h16.9c-.1,3.61-.86,7.14-2.22,10.28ZM52.52,36.98c-3.11,6.05-8.35,9.89-13.97,10.22v-10.92c4.78.02,9.47.26,13.97.7ZM38.55,23.61v-9.52c5.03-.02,9.97-.28,14.69-.76,1.36,3.15,2.12,6.67,2.22,10.28h-16.9ZM38.55,1.6c5.62.33,10.86,4.17,13.97,10.22-4.5.44-9.19.67-13.97.7V1.6ZM54.19,11.64c-1.62-3.34-3.87-6.17-6.53-8.19-.44-.34-.9-.65-1.36-.94,6.05,1.37,11.45,4.17,15.35,8.06-2.37.42-4.87.77-7.46,1.06ZM36.97,12.51c-4.78-.02-9.47-.26-13.97-.7,3.11-6.05,8.35-9.89,13.97-10.22v10.92ZM27.86,3.46c-2.66,2.02-4.91,4.84-6.53,8.19-2.59-.29-5.09-.64-7.46-1.06,3.9-3.89,9.3-6.7,15.35-8.06-.46.29-.92.6-1.37.94ZM22.29,13.33c4.72.48,9.65.74,14.69.76v9.52h-16.9c.1-3.61.86-7.14,2.22-10.28ZM36.97,25.19v9.52c-5.04.02-9.97.28-14.69.76-1.36-3.15-2.12-6.67-2.22-10.28h16.9ZM21.33,37.15c1.62,3.34,3.87,6.17,6.53,8.19.44.34.9.65,1.36.94-6.05-1.37-11.45-4.17-15.35-8.06,2.37-.42,4.87-.77,7.46-1.06ZM47.67,45.34c2.66-2.02,4.91-4.84,6.53-8.19,2.58.29,5.08.64,7.46,1.06-3.9,3.89-9.3,6.7-15.35,8.06.46-.29.92-.6,1.37-.94ZM62.92,36.85c-2.55-.48-5.25-.88-8.06-1.2,1.32-3.23,2.06-6.81,2.16-10.46h10.74c-.19,4.16-1.85,8.17-4.84,11.66ZM57.02,23.61c-.09-3.65-.83-7.23-2.16-10.46,2.81-.32,5.51-.72,8.06-1.2,2.99,3.49,4.66,7.5,4.84,11.66h-10.74ZM12.6,11.95c2.54.48,5.25.88,8.06,1.2-1.32,3.23-2.06,6.81-2.16,10.46H7.75c.19-4.16,1.85-8.17,4.84-11.66ZM18.5,25.19c.09,3.65.83,7.23,2.16,10.46-2.81.32-5.51.72-8.06,1.2-2.99-3.49-4.66-7.5-4.84-11.66h10.74ZM64.68,37.19c2.89-3.62,4.49-7.73,4.66-12h4.58c-.24,4.53-2.58,8.84-6.81,12.54-.79-.19-1.6-.36-2.43-.53ZM73.92,23.61h-4.58c-.17-4.27-1.77-8.39-4.66-12,.83-.17,1.64-.35,2.43-.53,4.23,3.69,6.57,8.01,6.81,12.54ZM8.41,11.07c.79.19,1.6.37,2.43.54-2.89,3.62-4.49,7.73-4.66,12H1.6c.24-4.53,2.58-8.85,6.81-12.54ZM1.6,25.19h4.58c.17,4.27,1.77,8.39,4.66,12-.83.17-1.64.35-2.43.54-4.23-3.69-6.57-8.01-6.81-12.54Z"/>
  </g>
</svg>