<?xml version="1.0" encoding="UTF-8"?>
<svg id="Calque_2" data-name="Calque 2" xmlns="http://www.w3.org/2000/svg" viewBox="0 0 252.53 252.53">
  <defs>
    <style>
      .cls-1 {
        fill: #fff;
      }
    </style>
  </defs>
  <g id="Calque_1-2" data-name="Calque 1">
    <g>
      <circle cx="126.27" cy="126.27" r="126.27"/>
      <path class="cls-1" d="M64.46,181.54h-12.79v-12.79h-12.48v-76.73h12.48v-12.79h12.79v-12.79h12.79v-12.79h25.58v-12.79h64.56v12.79h25.58v12.79h12.48v63.95h-12.48v12.79h-12.79v12.79h-12.79v12.79h-38.67v-12.79h-12.48v12.79h-25.89v-12.48h-12.79v-38.67h12.48v-12.79h12.79v-12.79h12.79v-12.79h26.19v12.79h12.48v-12.79h12.79v25.58h-12.79v25.58h-12.79v25.58h25.58v-12.79h12.79v-12.79h12.79v-63.95h-25.58v-12.79h-63.95v12.79h-25.58v12.79h-12.79v12.79h-12.79v76.73h12.79v12.79h12.79v12.79h76.73v-12.79h25.58v-12.79h12.79v-12.79h13.1v12.79h-12.79v12.79h-12.79v12.79h-25.58l-11.6,12.79h-54.14l-11.6-12.79h-12.79v-12.79ZM115.92,155.96v-25.58h12.79v-25.58h12.79v-12.79h-25.58v12.79h-12.79v12.79h-12.79v38.37h25.58Z"/>
    </g>
  </g>
</svg>