<?xml version="1.0" encoding="UTF-8"?>
<svg id="Calque_2" data-name="Calque 2" xmlns="http://www.w3.org/2000/svg" viewBox="0 0 178.93 178.6">
  <g id="Calque_1-2" data-name="Calque 1">
    <path d="M27.15,151.12h-13.74v-13.74H0V54.95h13.41v-13.74h13.74v-13.74h13.74v-13.74h27.48V0h69.35v13.74h27.48v13.74h13.41v68.69h-13.41v13.74h-13.74v13.74h-13.74v13.74h-41.54v-13.74h-13.41v13.74h-27.81v-13.41h-13.74v-41.55h13.41v-13.74h13.74v-13.74h13.74v-13.74h28.14v13.74h13.41v-13.74h13.74v27.48h-13.74v27.48h-13.74v27.48h27.48v-13.74h13.74v-13.74h13.74V27.48h-27.48v-13.74h-68.69v13.74h-27.48v13.74h-13.74v13.74h-13.74v82.43h13.74v13.74h13.74v13.74h82.43v-13.74h27.48v-13.74h13.74v-13.74h14.07v13.74h-13.74v13.74h-13.74v13.74h-27.48v13.74H40.89v-13.74h-13.74v-13.74ZM82.43,123.65v-27.48h13.74v-27.48h13.74v-13.74h-27.48v13.74h-13.74v13.74h-13.74v41.22h27.48Z"/>
  </g>
</svg>